<svg width="512" height="512" viewBox="0 0 512 512" fill="none" xmlns="http://www.w3.org/2000/svg">
<path d="M457.44 128H368V96C368 85.4943 365.931 75.0914 361.91 65.3853C357.89 55.6793 351.997 46.8601 344.569 39.4315C337.14 32.0028 328.321 26.11 318.615 22.0896C308.909 18.0693 298.506 16 288 16H96C85.4943 16 75.0914 18.0693 65.3853 22.0896C55.6793 26.11 46.8601 32.0028 39.4315 39.4315C24.4285 54.4344 16 74.7827 16 96V416C16 437.217 24.4285 457.566 39.4315 472.569C46.8601 479.997 55.6793 485.89 65.3853 489.91C75.0914 493.931 85.4943 496 96 496H288C298.506 496 308.909 493.931 318.615 489.91C328.321 485.89 337.14 479.997 344.569 472.569C351.997 465.14 357.89 456.321 361.91 446.615C365.931 436.909 368 426.506 368 416V384H457.44C467.667 384 477.475 379.937 484.706 372.706C491.937 365.475 496 355.667 496 345.44V166.56C496 156.333 491.937 146.525 484.706 139.294C477.475 132.063 467.667 128 457.44 128ZM464 166.56V184H208V160H457.44C459.18 160 460.848 160.691 462.079 161.921C463.309 163.152 464 164.82 464 166.56ZM208 216H464V240H208V216ZM336 416C336 428.73 330.943 440.939 321.941 449.941C312.939 458.943 300.73 464 288 464H96C83.2696 464 71.0606 458.943 62.0589 449.941C53.0571 440.939 48 428.73 48 416V96C48 83.2696 53.0571 71.0606 62.0589 62.0589C71.0606 53.0571 83.2696 48 96 48H288C300.73 48 312.939 53.0571 321.941 62.0589C330.943 71.0606 336 83.2696 336 96V128H208C208 123.757 206.314 119.687 203.314 116.686C200.313 113.686 196.243 112 192 112C187.757 112 183.687 113.686 180.686 116.686C177.686 119.687 176 123.757 176 128V384C176 388.243 177.686 392.313 180.686 395.314C183.687 398.314 187.757 400 192 400C196.243 400 200.313 398.314 203.314 395.314C206.314 392.313 208 388.243 208 384H336V416ZM457.44 352H208V272H464V345.44C464 347.18 463.309 348.848 462.079 350.079C460.848 351.309 459.18 352 457.44 352Z" fill="#061B1E"/>
<path d="M432 307.2H409.76C405.516 307.2 401.447 308.886 398.446 311.886C395.445 314.887 393.76 318.956 393.76 323.2C393.76 327.443 395.445 331.513 398.446 334.514C401.447 337.514 405.516 339.2 409.76 339.2H432C436.243 339.2 440.313 337.514 443.313 334.514C446.314 331.513 448 327.443 448 323.2C448 318.956 446.314 314.887 443.313 311.886C440.313 308.886 436.243 307.2 432 307.2Z" fill="#061B1E"/>
<path d="M161.44 432C161.44 436.243 163.126 440.313 166.126 443.314C169.127 446.314 173.196 448 177.44 448H209.44C213.683 448 217.753 446.314 220.754 443.314C223.754 440.313 225.44 436.243 225.44 432C225.44 427.757 223.754 423.687 220.754 420.686C217.753 417.686 213.683 416 209.44 416H177.44C173.196 416 169.127 417.686 166.126 420.686C163.126 423.687 161.44 427.757 161.44 432Z" fill="#061B1E"/>
</svg>
