<svg width="512" height="512" viewBox="0 0 512 512" fill="none" xmlns="http://www.w3.org/2000/svg">
<path d="M116.16 299.36H88.7998C84.5563 299.36 80.4867 301.046 77.4861 304.046C74.4855 307.047 72.7998 311.117 72.7998 315.36C72.7998 319.603 74.4855 323.673 77.4861 326.674C80.4867 329.674 84.5563 331.36 88.7998 331.36H116.16C120.403 331.36 124.473 329.674 127.474 326.674C130.474 323.673 132.16 319.603 132.16 315.36C132.16 311.117 130.474 307.047 127.474 304.046C124.473 301.046 120.403 299.36 116.16 299.36Z" fill="#061B1E"/>
<path d="M432 219.04V123.04C431.874 111.609 427.255 100.686 419.142 92.6327C411.028 84.5791 400.072 80.0413 388.64 80H59.36C47.8732 80.0422 36.8689 84.624 28.7464 92.7464C20.624 100.869 16.0422 111.873 16 123.36V342.88C16.0422 354.367 20.624 365.371 28.7464 373.494C36.8689 381.616 47.8732 386.198 59.36 386.24H293.92C303.954 400.087 317.026 411.452 332.132 419.465C347.239 427.477 363.98 431.924 381.072 432.465C398.163 433.005 415.152 429.625 430.735 422.583C446.318 415.541 460.081 405.024 470.97 391.839C481.859 378.653 489.584 363.15 493.553 346.517C497.522 329.884 497.63 312.562 493.868 295.881C490.106 279.2 482.574 263.601 471.85 250.282C461.126 236.962 447.494 226.275 432 219.04ZM384 208C373.162 207.949 362.377 209.513 352 212.64H48V180.64H400V209.28C394.707 208.45 389.358 208.022 384 208ZM59.36 112H388.64C391.627 112.081 394.47 113.304 396.583 115.417C398.696 117.53 399.919 120.373 400 123.36V148.64H48V123.36C48.0808 120.373 49.3036 117.53 51.4167 115.417C53.5299 113.304 56.3726 112.081 59.36 112ZM59.36 354.24C56.3471 354.24 53.4577 353.043 51.3273 350.913C49.1969 348.782 48 345.893 48 342.88V244.64H301.44C282.579 265.214 272.081 292.089 272 320C271.999 331.629 273.835 343.184 277.44 354.24H59.36ZM384 400C368.177 400 352.71 395.308 339.554 386.518C326.398 377.727 316.145 365.233 310.09 350.615C304.035 335.997 302.45 319.911 305.537 304.393C308.624 288.874 316.243 274.62 327.431 263.431C338.62 252.243 352.874 244.624 368.393 241.537C383.911 238.45 399.997 240.035 414.615 246.09C429.233 252.145 441.727 262.398 450.518 275.554C459.308 288.71 464 304.177 464 320C464 341.217 455.571 361.566 440.569 376.569C425.566 391.571 405.217 400 384 400Z" fill="#061B1E"/>
<path d="M424 304H344C339.757 304 335.687 305.686 332.686 308.686C329.686 311.687 328 315.757 328 320C328 324.243 329.686 328.313 332.686 331.314C335.687 334.314 339.757 336 344 336H424C428.243 336 432.313 334.314 435.314 331.314C438.314 328.313 440 324.243 440 320C440 315.757 438.314 311.687 435.314 308.686C432.313 305.686 428.243 304 424 304Z" fill="#061B1E"/>
</svg>
