<svg width="512" height="512" viewBox="0 0 512 512" fill="none" xmlns="http://www.w3.org/2000/svg">
<path d="M384 176V144C384 110.052 370.514 77.495 346.51 53.4903C322.505 29.4857 289.948 16 256 16C222.052 16 189.495 29.4857 165.49 53.4903C141.486 77.495 128 110.052 128 144V176C115.27 176 103.061 181.057 94.0589 190.059C85.0571 199.061 80 211.27 80 224V448C80 460.73 85.0571 472.939 94.0589 481.941C103.061 490.943 115.27 496 128 496H384C396.73 496 408.939 490.943 417.941 481.941C426.943 472.939 432 460.73 432 448V224C432 211.27 426.943 199.061 417.941 190.059C408.939 181.057 396.73 176 384 176ZM160 144C160 118.539 170.114 94.1212 188.118 76.1178C206.121 58.1143 230.539 48 256 48C281.461 48 305.879 58.1143 323.882 76.1178C341.886 94.1212 352 118.539 352 144V176H160V144ZM400 448C400 452.243 398.314 456.313 395.314 459.314C392.313 462.314 388.243 464 384 464H128C123.757 464 119.687 462.314 116.686 459.314C113.686 456.313 112 452.243 112 448V224C112 219.757 113.686 215.687 116.686 212.686C119.687 209.686 123.757 208 128 208H384C388.243 208 392.313 209.686 395.314 212.686C398.314 215.687 400 219.757 400 224V448Z" fill="#061B1E"/>
<path d="M288 288C292.243 288 296.313 286.314 299.314 283.314C302.314 280.313 304 276.243 304 272C304 267.756 302.314 263.687 299.314 260.686C296.313 257.686 292.243 256 288 256H272V246.4C272 242.156 270.314 238.087 267.314 235.086C264.313 232.086 260.243 230.4 256 230.4C251.757 230.4 247.687 232.086 244.686 235.086C241.686 238.087 240 242.156 240 246.4V256H236.8C229.175 256.042 221.874 259.09 216.482 264.482C211.09 269.874 208.042 277.175 208 284.8V323.2C208.042 330.825 211.09 338.126 216.482 343.518C221.874 348.91 229.175 351.958 236.8 352H272V384H224C219.757 384 215.687 385.686 212.686 388.686C209.686 391.687 208 395.756 208 400C208 404.243 209.686 408.313 212.686 411.314C215.687 414.314 219.757 416 224 416H240V425.6C240 429.843 241.686 433.913 244.686 436.914C247.687 439.914 251.757 441.6 256 441.6C260.243 441.6 264.313 439.914 267.314 436.914C270.314 433.913 272 429.843 272 425.6V416H275.2C282.825 415.958 290.126 412.91 295.518 407.518C300.91 402.126 303.958 394.825 304 387.2V348.8C303.958 341.175 300.91 333.874 295.518 328.482C290.126 323.09 282.825 320.042 275.2 320H240V288H288Z" fill="#061B1E"/>
</svg>
