<svg width="512" height="512" viewBox="0 0 512 512" fill="none" xmlns="http://www.w3.org/2000/svg">
<path d="M494.72 154.08L462.72 74.08C461.299 70.4902 458.628 67.5352 455.2 65.76L359.2 17.76C356.971 16.6179 354.504 16.015 352 16H160C157.495 16.015 155.029 16.6179 152.8 17.76L56.7997 65.76C53.3714 67.5352 50.7005 70.4902 49.2797 74.08L17.2797 154.08C16.2854 156.524 15.9112 159.177 16.1904 161.801C16.4695 164.425 17.3934 166.939 18.8797 169.12L242.88 489.12V489.92C243.913 491.147 245.16 492.177 246.56 492.96H247.84H249.28C251.314 494.378 253.592 495.409 256 496C257.436 496.155 258.884 496.155 260.32 496H261.76H263.04C264.44 495.217 265.687 494.187 266.72 492.96V492.16L490.72 172.16C493.179 169.933 494.884 166.997 495.601 163.757C496.318 160.518 496.01 157.136 494.72 154.08ZM72.4797 102.08L141.92 136.8L132.16 184.8L52.1597 150.72L72.4797 102.08ZM338.88 144L348.48 192H163.52L173.12 144H338.88ZM344.16 224L256 437.92L167.84 224H344.16ZM379.84 185.6L370.08 137.6L439.52 102.88L459.36 152.32L379.84 185.6ZM163.84 48H348.16L412.16 80L348.16 112H163.84L99.8397 80L163.84 48ZM131.84 220.16L186.08 352L77.2797 196.8L131.84 220.16ZM325.92 352L380.32 220L434.72 196.64L325.92 352Z" fill="#061B1E"/>
</svg>
