<svg width="512" height="512" viewBox="0 0 512 512" fill="none" xmlns="http://www.w3.org/2000/svg">
<path d="M448 16H192C179.27 16 167.061 21.0571 158.059 30.0589C149.057 39.0606 144 51.2696 144 64V224C144 236.73 149.057 248.939 158.059 257.941C167.061 266.943 179.27 272 192 272H448C460.73 272 472.939 266.943 481.941 257.941C490.943 248.939 496 236.73 496 224V64C496 51.2696 490.943 39.0606 481.941 30.0589C472.939 21.0571 460.73 16 448 16ZM176 64C176 59.7565 177.686 55.6869 180.686 52.6863C183.687 49.6857 187.757 48 192 48H205.92C203.448 54.7937 199.473 60.9412 194.292 65.9835C189.111 71.0258 182.858 74.8327 176 77.12V64ZM192 240C187.757 240 183.687 238.314 180.686 235.314C177.686 232.313 176 228.243 176 224V211.2C182.884 213.413 189.18 217.152 194.416 222.139C199.652 227.126 203.694 233.232 206.24 240H192ZM464 224C464 228.243 462.314 232.313 459.314 235.314C456.313 238.314 452.243 240 448 240H434.08C436.552 233.206 440.527 227.059 445.708 222.017C450.889 216.974 457.142 213.167 464 210.88V224ZM464 177.92C448.418 180.847 434.042 188.294 422.662 199.333C411.282 210.372 403.401 224.515 400 240H240C236.655 224.456 228.799 210.244 217.414 199.144C206.03 188.044 191.624 180.55 176 177.6V110.4C191.624 107.45 206.03 99.9556 217.414 88.8558C228.799 77.7561 236.655 63.5442 240 48H400C403.345 63.5442 411.201 77.7561 422.586 88.8558C433.97 99.9556 448.376 107.45 464 110.4V177.92ZM464 77.44C457.05 75.1612 450.712 71.3242 445.471 66.2218C440.23 61.1195 436.224 54.8869 433.76 48H448C452.243 48 456.313 49.6857 459.314 52.6863C462.314 55.6869 464 59.7565 464 64V77.44Z" fill="#061B1E"/>
<path d="M352 108.8C356.243 108.8 360.313 107.114 363.314 104.114C366.314 101.113 368 97.0435 368 92.8C368 88.5565 366.314 84.4869 363.314 81.4863C360.313 78.4857 356.243 76.8 352 76.8H337.44C336.471 73.4766 334.45 70.5572 331.68 68.48C328.91 66.4028 325.542 65.28 322.08 65.28C318.618 65.28 315.25 66.4028 312.48 68.48C309.71 70.5572 307.689 73.4766 306.72 76.8H288C283.757 76.8 279.687 78.4857 276.686 81.4863C273.686 84.4869 272 88.5565 272 92.8V144C272 148.243 273.686 152.313 276.686 155.314C279.687 158.314 283.757 160 288 160H336V179.2H288C283.757 179.2 279.687 180.886 276.686 183.886C273.686 186.887 272 190.957 272 195.2C272 199.443 273.686 203.513 276.686 206.514C279.687 209.514 283.757 211.2 288 211.2H306.72C307.689 214.523 309.71 217.443 312.48 219.52C315.25 221.597 318.618 222.72 322.08 222.72C325.542 222.72 328.91 221.597 331.68 219.52C334.45 217.443 336.471 214.523 337.44 211.2H352C356.243 211.2 360.313 209.514 363.314 206.514C366.314 203.513 368 199.443 368 195.2V144C368 139.757 366.314 135.687 363.314 132.686C360.313 129.686 356.243 128 352 128H304V108.8H352Z" fill="#061B1E"/>
<path d="M448 359.2L384 372.32C384.157 369.229 384.157 366.131 384 363.04C383.835 356.708 382.418 350.472 379.831 344.69C377.245 338.908 373.539 333.695 368.928 329.352C364.318 325.009 358.893 321.622 352.967 319.385C347.041 317.148 340.731 316.107 334.4 316.32C313.609 316.955 292.972 312.564 274.24 303.52L244 290.24C235.881 286.732 226.844 285.946 218.24 288C217.129 288.148 216.049 288.472 215.04 288.96L165.76 311.2C163.991 305.93 161.516 300.924 158.4 296.32C151.255 285.982 140.34 278.859 128 276.48L34.8803 262.56C32.5651 262.136 30.1849 262.229 27.9095 262.83C25.634 263.432 23.5194 264.528 21.7162 266.041C19.9131 267.554 18.466 269.446 17.478 271.582C16.4899 273.718 15.9854 276.046 16.0003 278.4V470.4C16.0003 474.643 17.686 478.713 20.6866 481.714C23.6872 484.714 27.7569 486.4 32.0003 486.4H102.4C113.795 485.902 124.664 481.468 133.154 473.853C141.645 466.238 147.231 455.913 148.96 444.64L264.48 489.12C275.927 493.704 288.15 496.04 300.48 496C313.2 495.994 325.801 493.55 337.6 488.8L470.08 435.04C479.795 431.168 487.652 423.713 492.029 414.215C496.406 404.717 496.968 393.901 493.6 384C490.302 375.038 483.857 367.581 475.468 363.018C467.078 358.455 457.316 357.098 448 359.2ZM102.4 454.4H48.0003V296.96L122.72 308.16C126.688 309.028 130.178 311.374 132.48 314.72C134.538 317.82 135.964 321.295 136.678 324.946C137.391 328.597 137.379 332.354 136.64 336L117.76 437.44C116 448 109.44 454.4 102.4 454.4ZM458.08 405.28L325.6 459.04C309.672 465.365 291.929 465.365 276 459.04L154.88 412.8L167.36 345.44L226.24 318.88C227.778 318.742 229.325 319.018 230.72 319.68L261.12 332.96C284.031 344.074 309.263 349.559 334.72 348.96C336.901 348.829 339.085 349.146 341.138 349.891C343.192 350.636 345.071 351.794 346.66 353.293C348.249 354.792 349.514 356.6 350.377 358.607C351.241 360.613 351.684 362.776 351.68 364.96C351.805 368.736 351.373 372.51 350.4 376.16L260.32 350.88C258.251 350.129 256.05 349.812 253.853 349.95C251.656 350.089 249.512 350.679 247.553 351.684C245.595 352.689 243.865 354.087 242.472 355.791C241.078 357.495 240.052 359.468 239.456 361.587C238.86 363.706 238.707 365.925 239.008 368.105C239.309 370.286 240.056 372.381 241.204 374.259C242.351 376.138 243.874 377.759 245.677 379.022C247.479 380.285 249.523 381.163 251.68 381.6L353.28 410.08H354.4H356.16H357.6H359.2H360.8L454.56 390.88C456.446 390.424 458.435 390.698 460.127 391.648C461.818 392.597 463.088 394.152 463.68 396C463.889 397.946 463.454 399.907 462.443 401.583C461.431 403.259 459.899 404.557 458.08 405.28Z" fill="#061B1E"/>
</svg>
