<svg width="512" height="512" viewBox="0 0 512 512" fill="none" xmlns="http://www.w3.org/2000/svg">
<path d="M480 80H32C27.7565 80 23.6869 81.6857 20.6863 84.6863C17.6857 87.6869 16 91.7565 16 96V416C16 420.243 17.6857 424.313 20.6863 427.314C23.6869 430.314 27.7565 432 32 432H480C484.243 432 488.313 430.314 491.314 427.314C494.314 424.313 496 420.243 496 416V96C496 91.7565 494.314 87.6869 491.314 84.6863C488.313 81.6857 484.243 80 480 80ZM48 112H144V400H48V112ZM464 400H176V112H464V400Z" fill="#061B1E"/>
<path d="M401.76 336H209.76C205.516 336 201.447 337.686 198.446 340.686C195.445 343.687 193.76 347.757 193.76 352C193.76 356.243 195.445 360.313 198.446 363.314C201.447 366.314 205.516 368 209.76 368H401.76C406.003 368 410.073 366.314 413.073 363.314C416.074 360.313 417.76 356.243 417.76 352C417.76 347.757 416.074 343.687 413.073 340.686C410.073 337.686 406.003 336 401.76 336Z" fill="#061B1E"/>
<path d="M209.76 172H220.96V226.08C220.96 230.323 222.645 234.393 225.646 237.394C228.647 240.394 232.716 242.08 236.96 242.08C241.203 242.08 245.273 240.394 248.273 237.394C251.274 234.393 252.96 230.323 252.96 226.08V172H264.16C268.403 172 272.473 170.314 275.473 167.314C278.474 164.313 280.16 160.243 280.16 156C280.16 151.757 278.474 147.687 275.473 144.686C272.473 141.686 268.403 140 264.16 140H209.76C205.516 140 201.447 141.686 198.446 144.686C195.445 147.687 193.76 151.757 193.76 156C193.76 160.243 195.445 164.313 198.446 167.314C201.447 170.314 205.516 172 209.76 172Z" fill="#061B1E"/>
<path d="M278.72 238.72C282.624 240.372 287.025 240.406 290.954 238.816C294.884 237.226 298.023 234.142 299.68 230.24L313.6 198.24L326.56 230.24C327.736 233.192 329.763 235.727 332.385 237.522C335.006 239.317 338.103 240.291 341.28 240.32C343.36 240.346 345.425 239.965 347.36 239.2C351.28 237.602 354.407 234.516 356.056 230.618C357.706 226.719 357.743 222.326 356.16 218.4L328.8 150.08C327.571 147.194 325.52 144.733 322.902 143.003C320.285 141.273 317.217 140.351 314.08 140.351C310.943 140.351 307.875 141.273 305.258 143.003C302.641 144.733 300.59 147.194 299.36 150.08L270.24 218.08C268.687 221.947 268.705 226.268 270.288 230.122C271.872 233.977 274.897 237.061 278.72 238.72Z" fill="#061B1E"/>
<path d="M371.04 236.96C373.786 238.948 377.091 240.012 380.48 240C383.005 240.007 385.495 239.416 387.748 238.275C390 237.135 391.951 235.478 393.44 233.44L405.28 217.44L417.28 233.44C418.77 235.478 420.72 237.135 422.973 238.275C425.225 239.416 427.716 240.007 430.24 240C433.185 239.978 436.066 239.144 438.567 237.59C441.068 236.036 443.091 233.822 444.415 231.192C445.738 228.561 446.31 225.617 446.068 222.682C445.825 219.748 444.778 216.937 443.04 214.56L425.12 190.08L443.04 165.44C444.439 163.761 445.479 161.814 446.097 159.718C446.714 157.622 446.896 155.422 446.631 153.253C446.365 151.084 445.658 148.993 444.554 147.108C443.449 145.222 441.97 143.583 440.207 142.292C438.445 141 436.437 140.083 434.306 139.597C432.176 139.111 429.969 139.067 427.821 139.467C425.672 139.867 423.629 140.703 421.816 141.922C420.003 143.142 418.46 144.721 417.28 146.56L405.28 162.56L393.44 146.56C392.348 144.546 390.835 142.789 389.005 141.41C387.174 140.031 385.069 139.061 382.831 138.566C380.594 138.071 378.276 138.063 376.035 138.541C373.793 139.02 371.681 139.975 369.841 141.34C368 142.706 366.475 144.451 365.368 146.458C364.26 148.464 363.597 150.685 363.422 152.97C363.248 155.255 363.566 157.551 364.356 159.703C365.146 161.854 366.389 163.811 368 165.44L385.92 190.08L368 214.56C365.437 217.935 364.318 222.189 364.887 226.389C365.457 230.588 367.67 234.39 371.04 236.96Z" fill="#061B1E"/>
<path d="M209.76 304H305.76C310.003 304 314.073 302.314 317.073 299.314C320.074 296.313 321.76 292.243 321.76 288C321.76 283.757 320.074 279.687 317.073 276.686C314.073 273.686 310.003 272 305.76 272H209.76C205.516 272 201.447 273.686 198.446 276.686C195.445 279.687 193.76 283.757 193.76 288C193.76 292.243 195.445 296.313 198.446 299.314C201.447 302.314 205.516 304 209.76 304Z" fill="#061B1E"/>
</svg>
