<svg width="512" height="512" viewBox="0 0 512 512" fill="none" xmlns="http://www.w3.org/2000/svg">
<path d="M384 208V64C384 51.2696 378.943 39.0606 369.941 30.0589C360.939 21.0571 348.73 16 336 16H176C163.27 16 151.061 21.0571 142.059 30.0589C133.057 39.0606 128 51.2696 128 64V208C115.27 208 103.061 213.057 94.0589 222.059C85.0571 231.061 80 243.27 80 256V448C80 460.73 85.0571 472.939 94.0589 481.941C103.061 490.943 115.27 496 128 496H384C396.73 496 408.939 490.943 417.941 481.941C426.943 472.939 432 460.73 432 448V256C432 243.27 426.943 231.061 417.941 222.059C408.939 213.057 396.73 208 384 208ZM352 64V77.12C345.29 74.7309 339.195 70.8783 334.158 65.8416C329.122 60.8049 325.269 54.7104 322.88 48H336C340.243 48 344.313 49.6857 347.314 52.6863C350.314 55.6869 352 59.7565 352 64ZM176 48H189.12C186.731 54.7104 182.878 60.8049 177.842 65.8416C172.805 70.8783 166.71 74.7309 160 77.12V64C160 59.7565 161.686 55.6869 164.686 52.6863C167.687 49.6857 171.757 48 176 48ZM160 110.4C175.374 107.265 189.487 99.6771 200.582 88.5821C211.677 77.4871 219.265 63.3743 222.4 48H289.6C292.735 63.3743 300.323 77.4871 311.418 88.5821C322.513 99.6771 336.626 107.265 352 110.4V208H325.12C326.96 201.763 327.929 195.302 328 188.8C328 169.704 320.414 151.391 306.912 137.888C293.409 124.386 275.096 116.8 256 116.8C236.904 116.8 218.591 124.386 205.088 137.888C191.586 151.391 184 169.704 184 188.8C184.071 195.302 185.04 201.763 186.88 208H160V110.4ZM221.28 208C217.834 202.188 216.01 195.557 216 188.8C216 178.191 220.214 168.017 227.716 160.516C235.217 153.014 245.391 148.8 256 148.8C266.609 148.8 276.783 153.014 284.284 160.516C291.786 168.017 296 178.191 296 188.8C295.99 195.557 294.166 202.188 290.72 208H221.28ZM384 464H128C123.757 464 119.687 462.314 116.686 459.314C113.686 456.313 112 452.243 112 448V256C112 251.757 113.686 247.687 116.686 244.686C119.687 241.686 123.757 240 128 240H384C388.243 240 392.313 241.686 395.314 244.686C398.314 247.687 400 251.757 400 256V304H352C339.27 304 327.061 309.057 318.059 318.059C309.057 327.061 304 339.27 304 352C304 364.73 309.057 376.939 318.059 385.941C327.061 394.943 339.27 400 352 400H400V448C400 452.243 398.314 456.313 395.314 459.314C392.313 462.314 388.243 464 384 464ZM400 336V368H352C347.757 368 343.687 366.314 340.686 363.314C337.686 360.313 336 356.243 336 352C336 347.757 337.686 343.687 340.686 340.686C343.687 337.686 347.757 336 352 336H400Z" fill="#061B1E"/>
</svg>
