<svg width="512" height="512" viewBox="0 0 512 512" fill="none" xmlns="http://www.w3.org/2000/svg">
<path d="M448 128H368V96C368 85.4943 365.931 75.0914 361.91 65.3853C357.89 55.6793 351.997 46.8601 344.569 39.4315C337.14 32.0028 328.321 26.11 318.615 22.0896C308.909 18.0693 298.506 16 288 16H96C85.4943 16 75.0914 18.0693 65.3853 22.0896C55.6793 26.11 46.8601 32.0028 39.4315 39.4315C24.4285 54.4344 16 74.7827 16 96V416C16 437.217 24.4285 457.566 39.4315 472.569C46.8601 479.997 55.6793 485.89 65.3853 489.91C75.0914 493.931 85.4943 496 96 496H288C298.506 496 308.909 493.931 318.615 489.91C328.321 485.89 337.14 479.997 344.569 472.569C351.997 465.14 357.89 456.321 361.91 446.615C365.931 436.909 368 426.506 368 416V384H448C460.73 384 472.939 378.943 481.941 369.941C490.943 360.939 496 348.73 496 336V176C496 163.27 490.943 151.061 481.941 142.059C472.939 133.057 460.73 128 448 128ZM464 176V189.12C457.29 186.731 451.195 182.878 446.158 177.842C441.122 172.805 437.269 166.71 434.88 160H448C452.243 160 456.313 161.686 459.314 164.686C462.314 167.687 464 171.757 464 176ZM401.6 352H208V160H401.6C404.735 175.374 412.323 189.487 423.418 200.582C434.513 211.677 448.626 219.265 464 222.4V289.6C448.626 292.735 434.513 300.323 423.418 311.418C412.323 322.513 404.735 336.626 401.6 352ZM336 416C336 428.73 330.943 440.939 321.941 449.941C312.939 458.943 300.73 464 288 464H96C83.2696 464 71.0606 458.943 62.0589 449.941C53.0571 440.939 48 428.73 48 416V96C48 83.2696 53.0571 71.0606 62.0589 62.0589C71.0606 53.0571 83.2696 48 96 48H288C300.73 48 312.939 53.0571 321.941 62.0589C330.943 71.0606 336 83.2696 336 96V128H208C208 123.757 206.314 119.687 203.314 116.686C200.313 113.686 196.243 112 192 112C187.757 112 183.687 113.686 180.686 116.686C177.686 119.687 176 123.757 176 128V384C176 388.243 177.686 392.313 180.686 395.314C183.687 398.314 187.757 400 192 400C196.243 400 200.313 398.314 203.314 395.314C206.314 392.313 208 388.243 208 384H336V416ZM448 352H434.88C437.269 345.29 441.122 339.195 446.158 334.158C451.195 329.122 457.29 325.269 464 322.88V336C464 340.243 462.314 344.313 459.314 347.314C456.313 350.314 452.243 352 448 352Z" fill="#061B1E"/>
<path d="M323.2 184C308.96 184 295.04 188.223 283.199 196.134C271.359 204.046 262.13 215.291 256.681 228.447C251.231 241.603 249.806 256.08 252.584 270.047C255.362 284.013 262.219 296.842 272.289 306.912C282.358 316.981 295.187 323.838 309.154 326.617C323.12 329.395 337.597 327.969 350.753 322.519C363.91 317.07 375.155 307.841 383.066 296.001C390.978 284.161 395.2 270.24 395.2 256C395.158 236.917 387.559 218.628 374.065 205.135C360.572 191.642 342.283 184.042 323.2 184ZM323.2 296C315.289 296 307.555 293.654 300.977 289.259C294.399 284.864 289.273 278.616 286.245 271.307C283.218 263.998 282.425 255.956 283.969 248.196C285.512 240.437 289.322 233.31 294.916 227.716C300.51 222.122 307.637 218.312 315.397 216.769C323.156 215.225 331.199 216.017 338.508 219.045C345.817 222.072 352.064 227.199 356.459 233.777C360.854 240.355 363.2 248.089 363.2 256C363.2 266.609 358.986 276.783 351.485 284.284C343.983 291.786 333.809 296 323.2 296Z" fill="#061B1E"/>
<path d="M161.44 432C161.44 436.243 163.126 440.313 166.126 443.314C169.127 446.314 173.196 448 177.44 448H209.44C213.683 448 217.753 446.314 220.754 443.314C223.754 440.313 225.44 436.243 225.44 432C225.44 427.757 223.754 423.687 220.754 420.686C217.753 417.686 213.683 416 209.44 416H177.44C173.196 416 169.127 417.686 166.126 420.686C163.126 423.687 161.44 427.757 161.44 432Z" fill="#061B1E"/>
</svg>
