<svg width="512" height="512" viewBox="0 0 512 512" fill="none" xmlns="http://www.w3.org/2000/svg">
<path d="M448 16H64C51.2696 16 39.0606 21.0571 30.0589 30.0589C21.0571 39.0606 16 51.2696 16 64V160C16 172.73 21.0571 184.939 30.0589 193.941C39.0606 202.943 51.2696 208 64 208H80V448C80 460.73 85.0571 472.939 94.0589 481.941C103.061 490.943 115.27 496 128 496H384C396.73 496 408.939 490.943 417.941 481.941C426.943 472.939 432 460.73 432 448V208H448C460.73 208 472.939 202.943 481.941 193.941C490.943 184.939 496 172.73 496 160V64C496 51.2696 490.943 39.0606 481.941 30.0589C472.939 21.0571 460.73 16 448 16ZM112 448V112H240V464H128C123.757 464 119.687 462.314 116.686 459.314C113.686 456.313 112 452.243 112 448ZM320 112V464H272V112H320ZM400 448C400 452.243 398.314 456.313 395.314 459.314C392.313 462.314 388.243 464 384 464H352V112H400V448ZM464 160C464 164.243 462.314 168.313 459.314 171.314C456.313 174.314 452.243 176 448 176H432V96C432 91.7565 430.314 87.6869 427.314 84.6863C424.313 81.6857 420.243 80 416 80H96C91.7565 80 87.6869 81.6857 84.6863 84.6863C81.6857 87.6869 80 91.7565 80 96V176H64C59.7565 176 55.6869 174.314 52.6863 171.314C49.6857 168.313 48 164.243 48 160V64C48 59.7565 49.6857 55.6869 52.6863 52.6863C55.6869 49.6857 59.7565 48 64 48H448C452.243 48 456.313 49.6857 459.314 52.6863C462.314 55.6869 464 59.7565 464 64V160Z" fill="#061B1E"/>
<path d="M176 352C166.507 352 157.226 354.815 149.333 360.089C141.439 365.364 135.287 372.86 131.654 381.631C128.021 390.402 127.07 400.053 128.922 409.364C130.774 418.675 135.346 427.228 142.059 433.941C148.772 440.654 157.325 445.226 166.636 447.078C175.947 448.93 185.598 447.979 194.369 444.346C203.14 440.713 210.636 434.561 215.911 426.667C221.185 418.774 224 409.494 224 400C224 387.27 218.943 375.061 209.941 366.059C200.939 357.057 188.73 352 176 352ZM176 416C172.836 416 169.742 415.062 167.111 413.304C164.48 411.545 162.429 409.047 161.218 406.123C160.007 403.199 159.69 399.982 160.307 396.879C160.925 393.775 162.449 390.924 164.686 388.686C166.924 386.449 169.775 384.925 172.879 384.307C175.982 383.69 179.199 384.007 182.123 385.218C185.047 386.429 187.545 388.48 189.304 391.111C191.062 393.742 192 396.835 192 400C192 404.243 190.314 408.313 187.314 411.314C184.313 414.314 180.243 416 176 416Z" fill="#061B1E"/>
</svg>
