<svg width="512" height="512" viewBox="0 0 512 512" fill="none" xmlns="http://www.w3.org/2000/svg">
<path d="M428.48 145.28C417.587 107.968 394.888 75.1944 363.79 51.8766C332.691 28.5588 294.87 15.9543 256 15.9543C217.13 15.9543 179.309 28.5588 148.21 51.8766C117.112 75.1944 94.413 107.968 83.52 145.28C64.7499 148.244 47.648 157.793 35.2763 172.217C22.9047 186.641 16.0714 204.997 16 224V416C16 437.217 24.4285 457.566 39.4315 472.569C54.4344 487.571 74.7827 496 96 496H416C437.217 496 457.566 487.571 472.569 472.569C487.571 457.566 496 437.217 496 416V224C495.929 204.997 489.095 186.641 476.724 172.217C464.352 157.793 447.25 148.244 428.48 145.28ZM256 48C286.109 47.9655 315.508 57.1451 340.248 74.3058C364.988 91.4666 383.885 115.787 394.4 144H117.6C128.115 115.787 147.012 91.4666 171.752 74.3058C196.492 57.1451 225.891 47.9655 256 48ZM96 176H416C428.73 176 440.939 181.057 449.941 190.059C458.943 199.061 464 211.27 464 224C464 245.217 455.571 265.566 440.569 280.569C425.566 295.571 405.217 304 384 304V296C384 291.757 382.314 287.687 379.314 284.686C376.313 281.686 372.243 280 368 280C363.757 280 359.687 281.686 356.686 284.686C353.686 287.687 352 291.757 352 296V304H160V296C160 291.757 158.314 287.687 155.314 284.686C152.313 281.686 148.243 280 144 280C139.757 280 135.687 281.686 132.686 284.686C129.686 287.687 128 291.757 128 296V304C106.783 304 86.4344 295.571 71.4315 280.569C56.4285 265.566 48 245.217 48 224C48 211.27 53.0571 199.061 62.0589 190.059C71.0606 181.057 83.2696 176 96 176ZM464 416C464 428.73 458.943 440.939 449.941 449.941C440.939 458.943 428.73 464 416 464H96C83.2696 464 71.0606 458.943 62.0589 449.941C53.0571 440.939 48 428.73 48 416V302.24C58.4161 312.909 70.8577 321.391 84.5952 327.188C98.3327 332.985 113.089 335.981 128 336V344C128 348.243 129.686 352.313 132.686 355.314C135.687 358.314 139.757 360 144 360C148.243 360 152.313 358.314 155.314 355.314C158.314 352.313 160 348.243 160 344V336H352V344C352 348.243 353.686 352.313 356.686 355.314C359.687 358.314 363.757 360 368 360C372.243 360 376.313 358.314 379.314 355.314C382.314 352.313 384 348.243 384 344V336C398.911 335.981 413.667 332.985 427.405 327.188C441.142 321.391 453.584 312.909 464 302.24V416Z" fill="#061B1E"/>
</svg>
