<svg width="512" height="512" viewBox="0 0 512 512" fill="none" xmlns="http://www.w3.org/2000/svg">
<path d="M360 288C386.898 288 413.192 280.024 435.558 265.08C457.923 250.136 475.354 228.896 485.648 204.045C495.941 179.194 498.634 151.849 493.387 125.468C488.139 99.0863 475.186 74.8534 456.167 55.8335C437.147 36.8135 412.914 23.8608 386.532 18.6132C360.151 13.3656 332.806 16.0589 307.955 26.3524C283.104 36.6459 261.864 54.0774 246.92 76.4425C231.976 98.8075 224 125.102 224 152C224.042 188.056 238.384 222.624 263.88 248.12C289.376 273.616 323.944 287.958 360 288ZM360 48C380.569 48 400.677 54.0995 417.779 65.5272C434.882 76.9548 448.212 93.1974 456.083 112.201C463.955 131.204 466.015 152.115 462.002 172.289C457.989 192.463 448.084 210.994 433.539 225.539C418.994 240.084 400.463 249.989 380.289 254.002C360.115 258.015 339.204 255.955 320.201 248.083C301.197 240.212 284.955 226.882 273.527 209.779C262.099 192.677 256 172.569 256 152C256.042 124.43 267.013 98.0023 286.508 78.5076C306.002 59.013 332.43 48.0423 360 48Z" fill="#061B1E"/>
<path d="M328 168H331.04C328.88 175.784 325.12 183.032 320 189.28L315.2 195.36C313.312 197.717 312.129 200.561 311.79 203.563C311.45 206.564 311.967 209.6 313.28 212.32C314.599 215.013 316.649 217.281 319.195 218.865C321.741 220.449 324.681 221.286 327.68 221.28H391.68C395.923 221.28 399.993 219.594 402.994 216.594C405.994 213.593 407.68 209.523 407.68 205.28C407.68 201.037 405.994 196.967 402.994 193.966C399.993 190.966 395.923 189.28 391.68 189.28H357.44C360.461 182.484 362.611 175.334 363.84 168H370.72C374.963 168 379.033 166.314 382.034 163.314C385.034 160.313 386.72 156.243 386.72 152C386.72 147.757 385.034 143.687 382.034 140.686C379.033 137.686 374.963 136 370.72 136H360.16L352 117.12C351.845 116.852 351.764 116.549 351.764 116.24C351.764 115.931 351.845 115.628 352 115.36C352.223 115.247 352.47 115.189 352.72 115.189C352.97 115.189 353.217 115.247 353.44 115.36H373.44C373.907 115.36 374.354 115.545 374.684 115.875C375.015 116.206 375.2 116.653 375.2 117.12C375.2 121.363 376.886 125.433 379.886 128.434C382.887 131.434 386.957 133.12 391.2 133.12C395.443 133.12 399.513 131.434 402.514 128.434C405.514 125.433 407.2 121.363 407.2 117.12C407.2 108.166 403.643 99.5793 397.312 93.2481C390.981 86.9169 382.394 83.36 373.44 83.36H354.24C348.661 83.215 343.134 84.4618 338.158 86.9878C333.182 89.5138 328.914 93.2394 325.738 97.8282C322.562 102.417 320.58 107.725 319.969 113.271C319.358 118.818 320.139 124.43 322.24 129.6L325.28 137.12C321.406 137.628 317.852 139.535 315.288 142.482C312.724 145.43 311.327 149.213 311.36 153.12C311.648 157.279 313.548 161.162 316.656 163.941C319.764 166.72 323.834 168.177 328 168Z" fill="#061B1E"/>
<path d="M43.36 179.2C46.3578 182.18 50.413 183.853 54.64 183.853C58.867 183.853 62.9222 182.18 65.92 179.2L88.64 156.64C91.2627 153.972 92.8676 150.469 93.1756 146.741C93.4837 143.012 92.4755 139.294 90.3262 136.232C88.177 133.169 85.0226 130.957 81.4114 129.979C77.8002 129.002 73.9606 129.32 70.56 130.88V112C70.56 101.009 74.926 90.469 82.6975 82.6975C90.469 74.926 101.009 70.56 112 70.56H129.6C128.193 73.522 127.73 76.8448 128.274 80.0786C128.817 83.3124 130.342 86.3011 132.64 88.64C134.127 90.1397 135.897 91.33 137.847 92.1423C139.797 92.9546 141.888 93.3728 144 93.3728C146.112 93.3728 148.203 92.9546 150.153 92.1423C152.103 91.33 153.873 90.1397 155.36 88.64L177.92 65.92C180.265 63.6488 181.859 60.7147 182.488 57.5115C183.117 54.3084 182.751 50.9894 181.44 48C180.612 46.0797 179.417 44.3403 177.92 42.88L155.36 20.64C153.873 19.1403 152.103 17.95 150.153 17.1377C148.203 16.3254 146.112 15.9072 144 15.9072C141.888 15.9072 139.797 16.3254 137.847 17.1377C135.897 17.95 134.127 19.1403 132.64 20.64C130.375 22.9659 128.871 25.9257 128.328 29.1264C127.785 32.3271 128.229 35.6173 129.6 38.56H112C92.5355 38.6023 73.8803 46.3532 60.1168 60.1168C46.3532 73.8803 38.6023 92.5355 38.56 112V130.88C35.6173 129.509 32.3271 129.065 29.1264 129.608C25.9257 130.151 22.9659 131.655 20.64 133.92C19.1403 135.407 17.95 137.177 17.1377 139.127C16.3254 141.077 15.9072 143.168 15.9072 145.28C15.9072 147.392 16.3254 149.483 17.1377 151.433C17.95 153.383 19.1403 155.153 20.64 156.64L43.36 179.2Z" fill="#061B1E"/>
<path d="M468.64 332.8C465.643 329.82 461.587 328.147 457.36 328.147C453.133 328.147 449.078 329.82 446.08 332.8L423.36 355.36C420.738 358.028 419.133 361.531 418.825 365.259C418.517 368.988 419.525 372.706 421.674 375.768C423.823 378.831 426.978 381.043 430.589 382.021C434.2 382.998 438.04 382.68 441.44 381.12V400C441.44 410.991 437.074 421.531 429.303 429.302C421.531 437.074 410.991 441.44 400 441.44H382.4C383.96 438.039 384.279 434.2 383.301 430.589C382.323 426.977 380.111 423.823 377.049 421.674C373.987 419.525 370.268 418.516 366.539 418.824C362.811 419.132 359.308 420.737 356.64 423.36L334.08 446.08C331.1 449.078 329.428 453.133 329.428 457.36C329.428 461.587 331.1 465.642 334.08 468.64L356.64 491.36C358.128 492.86 359.897 494.05 361.847 494.862C363.797 495.675 365.888 496.093 368 496.093C370.113 496.093 372.204 495.675 374.154 494.862C376.103 494.05 377.873 492.86 379.36 491.36C381.625 489.034 383.129 486.074 383.672 482.874C384.215 479.673 383.772 476.383 382.4 473.44H400C419.465 473.398 438.12 465.647 451.884 451.883C465.647 438.12 473.398 419.465 473.44 400V381.12C475.488 382.114 477.725 382.659 480 382.72C482.106 382.732 484.194 382.329 486.143 381.532C488.092 380.736 489.865 379.563 491.36 378.08C492.86 376.593 494.05 374.823 494.863 372.873C495.675 370.923 496.093 368.832 496.093 366.72C496.093 364.608 495.675 362.517 494.863 360.567C494.05 358.617 492.86 356.847 491.36 355.36L468.64 332.8Z" fill="#061B1E"/>
<path d="M152 224C125.102 224 98.8076 231.976 76.4425 246.92C54.0774 261.864 36.646 283.104 26.3524 307.955C16.0589 332.806 13.3657 360.151 18.6133 386.532C23.8609 412.914 36.8136 437.147 55.8335 456.167C74.8535 475.186 99.0864 488.139 125.468 493.387C151.849 498.634 179.194 495.941 204.045 485.648C228.896 475.354 250.136 457.923 265.08 435.558C280.024 413.192 288 386.898 288 360C287.958 323.944 273.616 289.376 248.12 263.88C222.624 238.384 188.057 224.042 152 224ZM152 464C131.431 464 111.323 457.901 94.2208 446.473C77.118 435.045 63.7881 418.803 55.9166 399.799C48.0451 380.796 45.9855 359.885 49.9984 339.711C54.0113 319.537 63.9163 301.006 78.461 286.461C93.0056 271.916 111.537 262.011 131.711 257.998C151.885 253.985 172.796 256.045 191.799 263.917C210.803 271.788 227.045 285.118 238.473 302.221C249.901 319.323 256 339.431 256 360C255.958 387.57 244.987 413.998 225.492 433.492C205.998 452.987 179.57 463.958 152 464Z" fill="#061B1E"/>
<path d="M176 328C180.243 328 184.313 326.314 187.314 323.314C190.314 320.313 192 316.243 192 312C192 307.757 190.314 303.687 187.314 300.686C184.313 297.686 180.243 296 176 296H168V292.8C168 288.557 166.314 284.487 163.314 281.486C160.313 278.486 156.243 276.8 152 276.8C147.757 276.8 143.687 278.486 140.686 281.486C137.686 284.487 136 288.557 136 292.8V296.16C129.519 296.566 123.435 299.419 118.978 304.143C114.522 308.866 112.028 315.106 112 321.6V350.4C112 357.19 114.697 363.701 119.498 368.502C124.299 373.303 130.81 376 137.6 376H160V392H128C123.757 392 119.687 393.686 116.686 396.686C113.686 399.687 112 403.757 112 408C112 412.243 113.686 416.313 116.686 419.314C119.687 422.314 123.757 424 128 424H136V427.2C136 431.443 137.686 435.513 140.686 438.514C143.687 441.514 147.757 443.2 152 443.2C156.243 443.2 160.313 441.514 163.314 438.514C166.314 435.513 168 431.443 168 427.2V423.84C174.481 423.434 180.565 420.581 185.022 415.857C189.478 411.134 191.972 404.894 192 398.4V369.6C192 362.81 189.303 356.299 184.502 351.498C179.701 346.697 173.19 344 166.4 344H144V328H176Z" fill="#061B1E"/>
</svg>
