<svg width="512" height="512" viewBox="0 0 512 512" fill="none" xmlns="http://www.w3.org/2000/svg">
<path d="M494.72 25.92C493.096 22.0104 489.989 18.9036 486.08 17.28C484.156 16.4601 482.091 16.0253 480 16H448C443.756 16 439.687 17.6857 436.686 20.6863C433.686 23.6869 432 27.7565 432 32C432.034 35.2609 433.064 38.4334 434.951 41.0928C436.838 43.7522 439.493 45.7714 442.56 46.88L437.44 51.84L318.24 141.28L199.2 81.76C196.643 80.5681 193.816 80.0735 191.006 80.3264C188.196 80.5793 185.503 81.5707 183.2 83.2L55.1998 179.2C53.5189 180.461 52.1027 182.04 51.0322 183.848C49.9617 185.656 49.2578 187.657 48.9606 189.737C48.6635 191.817 48.7789 193.935 49.3004 195.971C49.8219 198.006 50.7391 199.919 51.9998 201.6C53.4071 203.483 55.2119 205.032 57.286 206.138C59.36 207.245 61.6523 207.88 63.9998 208C67.4617 208 70.8303 206.877 73.5998 204.8L193.76 114.72L312.8 174.24C315.457 175.588 318.437 176.167 321.405 175.913C324.373 175.658 327.211 174.58 329.6 172.8L457.6 76.8L459.36 75.36L465.12 69.44C466.228 72.5068 468.248 75.1617 470.907 77.049C473.566 78.9363 476.739 79.9659 480 80C484.243 80 488.313 78.3143 491.314 75.3137C494.314 72.3131 496 68.2435 496 64V32C495.975 29.9092 495.54 27.8436 494.72 25.92Z" fill="#061B1E"/>
<path d="M64 240C51.2696 240 39.0606 245.057 30.0589 254.059C21.0571 263.061 16 275.27 16 288V448C16 460.73 21.0571 472.939 30.0589 481.941C39.0606 490.943 51.2696 496 64 496C76.7304 496 88.9394 490.943 97.9411 481.941C106.943 472.939 112 460.73 112 448V288C112 275.27 106.943 263.061 97.9411 254.059C88.9394 245.057 76.7304 240 64 240ZM80 448C80 452.243 78.3143 456.313 75.3137 459.314C72.3131 462.314 68.2435 464 64 464C59.7565 464 55.6869 462.314 52.6863 459.314C49.6857 456.313 48 452.243 48 448V288C48 283.757 49.6857 279.687 52.6863 276.686C55.6869 273.686 59.7565 272 64 272C68.2435 272 72.3131 273.686 75.3137 276.686C78.3143 279.687 80 283.757 80 288V448Z" fill="#061B1E"/>
<path d="M192 160C179.27 160 167.061 165.057 158.059 174.059C149.057 183.061 144 195.27 144 208V448C144 460.73 149.057 472.939 158.059 481.941C167.061 490.943 179.27 496 192 496C204.73 496 216.939 490.943 225.941 481.941C234.943 472.939 240 460.73 240 448V208C240 195.27 234.943 183.061 225.941 174.059C216.939 165.057 204.73 160 192 160ZM208 448C208 452.243 206.314 456.313 203.314 459.314C200.313 462.314 196.243 464 192 464C187.757 464 183.687 462.314 180.686 459.314C177.686 456.313 176 452.243 176 448V208C176 203.757 177.686 199.687 180.686 196.686C183.687 193.686 187.757 192 192 192C196.243 192 200.313 193.686 203.314 196.686C206.314 199.687 208 203.757 208 208V448Z" fill="#061B1E"/>
<path d="M320 208C307.27 208 295.061 213.057 286.059 222.059C277.057 231.061 272 243.27 272 256V448C272 460.73 277.057 472.939 286.059 481.941C295.061 490.943 307.27 496 320 496C332.73 496 344.939 490.943 353.941 481.941C362.943 472.939 368 460.73 368 448V256C368 243.27 362.943 231.061 353.941 222.059C344.939 213.057 332.73 208 320 208ZM336 448C336 452.243 334.314 456.313 331.314 459.314C328.313 462.314 324.243 464 320 464C315.757 464 311.687 462.314 308.686 459.314C305.686 456.313 304 452.243 304 448V256C304 251.757 305.686 247.687 308.686 244.686C311.687 241.686 315.757 240 320 240C324.243 240 328.313 241.686 331.314 244.686C334.314 247.687 336 251.757 336 256V448Z" fill="#061B1E"/>
<path d="M448 144C435.27 144 423.061 149.057 414.059 158.059C405.057 167.061 400 179.27 400 192V448C400 460.73 405.057 472.939 414.059 481.941C423.061 490.943 435.27 496 448 496C460.73 496 472.939 490.943 481.941 481.941C490.943 472.939 496 460.73 496 448V192C496 179.27 490.943 167.061 481.941 158.059C472.939 149.057 460.73 144 448 144ZM464 448C464 452.243 462.314 456.313 459.314 459.314C456.313 462.314 452.243 464 448 464C443.757 464 439.687 462.314 436.686 459.314C433.686 456.313 432 452.243 432 448V192C432 187.757 433.686 183.687 436.686 180.686C439.687 177.686 443.757 176 448 176C452.243 176 456.313 177.686 459.314 180.686C462.314 183.687 464 187.757 464 192V448Z" fill="#061B1E"/>
</svg>
