<svg width="512" height="512" viewBox="0 0 512 512" fill="none" xmlns="http://www.w3.org/2000/svg">
<path d="M422.72 406.56C421.23 404.522 419.28 402.865 417.027 401.725C414.775 400.584 412.285 399.993 409.76 400H346.56C355.961 388.88 362.543 375.657 365.746 361.452C368.949 347.247 368.679 332.479 364.96 318.4C364.236 315.673 362.804 313.186 360.809 311.191C358.814 309.196 356.327 307.764 353.6 307.04C339.518 303.361 324.76 303.112 310.562 306.313C296.364 309.515 283.14 316.074 272 325.44V270.88C304.305 266.81 333.844 250.582 354.605 225.499C375.366 200.416 385.788 168.364 383.749 135.868C381.71 103.372 367.363 72.8742 343.63 50.5833C319.896 28.2924 288.56 15.8839 256 15.8839C223.44 15.8839 192.104 28.2924 168.37 50.5833C144.637 72.8742 130.29 103.372 128.251 135.868C126.212 168.364 136.634 200.416 157.395 225.499C178.156 250.582 207.695 266.81 240 270.88V400H89.76C87.1863 399.88 84.6218 400.384 82.2846 401.468C79.9473 402.553 77.9065 404.185 76.3356 406.227C74.7647 408.27 73.7102 410.661 73.2618 413.198C72.8134 415.735 72.9843 418.343 73.76 420.8L93.76 484.8C94.8162 488.171 96.9585 491.098 99.8529 493.124C102.747 495.15 106.231 496.162 109.76 496H389.76C393.154 495.987 396.456 494.894 399.188 492.881C401.92 490.868 403.942 488.038 404.96 484.8L424.96 420.8C425.727 418.417 425.924 415.887 425.534 413.413C425.145 410.94 424.181 408.593 422.72 406.56ZM288.96 352.96C295.063 346.836 302.446 342.139 310.579 339.207C318.712 336.274 327.393 335.179 336 336C336.998 344.646 336.028 353.406 333.165 361.625C330.301 369.843 325.617 377.309 319.463 383.463C313.309 389.617 305.843 394.301 297.625 397.165C289.406 400.028 280.646 400.998 272 400C271.168 391.393 272.258 382.708 275.191 374.573C278.124 366.438 282.827 359.056 288.96 352.96ZM160 144C160 125.013 165.63 106.452 176.179 90.6653C186.728 74.8781 201.721 62.5736 219.262 55.3076C236.804 48.0416 256.106 46.1404 274.729 49.8446C293.351 53.5488 310.456 62.6919 323.882 76.1178C337.308 89.5436 346.451 106.649 350.155 125.271C353.86 143.894 351.958 163.196 344.692 180.738C337.426 198.279 325.122 213.272 309.335 223.821C293.548 234.37 274.987 240 256 240C230.539 240 206.121 229.886 188.118 211.882C170.114 193.879 160 169.461 160 144ZM377.92 464H121.92L112 432H388L377.92 464Z" fill="#061B1E"/>
<path d="M273.44 211.2H288C292.243 211.2 296.313 209.514 299.314 206.514C302.314 203.513 304 199.443 304 195.2V144C304 139.757 302.314 135.687 299.314 132.686C296.313 129.686 292.243 128 288 128H240V108.8H288C292.243 108.8 296.313 107.114 299.314 104.114C302.314 101.113 304 97.0435 304 92.8C304 88.5565 302.314 84.4869 299.314 81.4863C296.313 78.4857 292.243 76.8 288 76.8H273.44C272.471 73.4766 270.45 70.5572 267.68 68.48C264.91 66.4028 261.542 65.28 258.08 65.28C254.618 65.28 251.25 66.4028 248.48 68.48C245.71 70.5572 243.689 73.4766 242.72 76.8H224C219.757 76.8 215.687 78.4857 212.686 81.4863C209.686 84.4869 208 88.5565 208 92.8V144C208 148.243 209.686 152.313 212.686 155.314C215.687 158.314 219.757 160 224 160H272V179.2H224C219.757 179.2 215.687 180.886 212.686 183.886C209.686 186.887 208 190.957 208 195.2C208 199.443 209.686 203.513 212.686 206.514C215.687 209.514 219.757 211.2 224 211.2H242.72C243.689 214.523 245.71 217.443 248.48 219.52C251.25 221.597 254.618 222.72 258.08 222.72C261.542 222.72 264.91 221.597 267.68 219.52C270.45 217.443 272.471 214.523 273.44 211.2Z" fill="#061B1E"/>
</svg>
