<svg width="512" height="512" viewBox="0 0 512 512" fill="none" xmlns="http://www.w3.org/2000/svg">
<path d="M384 272C396.731 272 408.94 266.943 417.941 257.941C426.943 248.939 432 236.73 432 224V64C432 51.2696 426.943 39.0606 417.941 30.0589C408.94 21.0571 396.731 16 384 16H128C115.27 16 103.061 21.0571 94.0591 30.0589C85.0573 39.0606 80.0002 51.2696 80.0002 64V224C80.0002 236.73 85.0573 248.939 94.0591 257.941C103.061 266.943 115.27 272 128 272H240V400H96.0002C93.4265 399.88 90.862 400.384 88.5248 401.468C86.1876 402.553 84.1467 404.185 82.5758 406.227C81.0049 408.27 79.9504 410.661 79.502 413.198C79.0536 415.735 79.2245 418.343 80.0002 420.8L100 484.8C101.056 488.171 103.199 491.098 106.093 493.124C108.987 495.15 112.471 496.162 116 496H396C399.394 495.987 402.696 494.894 405.428 492.881C408.161 490.868 410.182 488.038 411.2 484.8L431.2 420.8C431.952 418.409 432.132 415.874 431.725 413.4C431.317 410.927 430.335 408.584 428.855 406.56C427.376 404.536 425.442 402.887 423.209 401.748C420.976 400.609 418.507 400.01 416 400H346.72C356.02 388.887 362.528 375.712 365.701 361.573C368.874 347.434 368.62 332.741 364.96 318.72C364.236 315.993 362.804 313.506 360.809 311.511C358.814 309.516 356.327 308.084 353.6 307.36C339.522 303.641 324.754 303.371 310.548 306.574C296.343 309.777 283.12 316.358 272 325.76V272H384ZM384 464H128L117.92 432H273.92H277.76H280.32H394.4L384 464ZM288 353.28C294.2 346.994 301.73 342.178 310.037 339.188C318.344 336.197 327.216 335.108 336 336C336.936 344.633 335.924 353.366 333.038 361.557C330.153 369.747 325.468 377.187 319.327 383.327C313.187 389.467 305.748 394.153 297.557 397.038C289.367 399.924 280.633 400.936 272 400C271.217 391.444 272.33 382.821 275.262 374.746C278.193 366.67 282.871 359.341 288.96 353.28H288ZM400 224C400 228.243 398.315 232.313 395.314 235.314C392.313 238.314 388.244 240 384 240H370.08C372.552 233.206 376.527 227.059 381.708 222.017C386.889 216.974 393.142 213.167 400 210.88V224ZM384 48C388.244 48 392.313 49.6857 395.314 52.6863C398.315 55.6869 400 59.7565 400 64V76.8C393.116 74.5874 386.82 70.8479 381.584 65.8609C376.348 60.8739 372.306 54.7683 369.76 48H384ZM112 64C112 59.7565 113.686 55.6869 116.687 52.6863C119.687 49.6857 123.757 48 128 48H141.92C139.448 54.7937 135.473 60.9412 130.292 65.9835C125.111 71.0258 118.858 74.8327 112 77.12V64ZM128 240C123.757 240 119.687 238.314 116.687 235.314C113.686 232.313 112 228.243 112 224V211.2C118.885 213.413 125.18 217.152 130.416 222.139C135.653 227.126 139.695 233.232 142.24 240H128ZM112 177.6V110.4C127.624 107.45 142.03 99.9556 153.415 88.8558C164.799 77.7561 172.656 63.5442 176 48H336C339.345 63.5442 347.201 77.7561 358.586 88.8558C369.97 99.9556 384.376 107.45 400 110.4V177.6C384.376 180.55 369.97 188.044 358.586 199.144C347.201 210.244 339.345 224.456 336 240H176C172.656 224.456 164.799 210.244 153.415 199.144C142.03 188.044 127.624 180.55 112 177.6Z" fill="#061B1E"/>
<path d="M288 108.8C292.243 108.8 296.313 107.114 299.314 104.114C302.314 101.113 304 97.0435 304 92.8C304 88.5565 302.314 84.4869 299.314 81.4863C296.313 78.4857 292.243 76.8 288 76.8H273.44C272.471 73.4766 270.45 70.5572 267.68 68.48C264.91 66.4028 261.542 65.28 258.08 65.28C254.618 65.28 251.25 66.4028 248.48 68.48C245.71 70.5572 243.689 73.4766 242.72 76.8H224C219.757 76.8 215.687 78.4857 212.686 81.4863C209.686 84.4869 208 88.5565 208 92.8V144C208 148.243 209.686 152.313 212.686 155.314C215.687 158.314 219.757 160 224 160H272V179.2H224C219.757 179.2 215.687 180.886 212.686 183.886C209.686 186.887 208 190.957 208 195.2C208 199.443 209.686 203.513 212.686 206.514C215.687 209.514 219.757 211.2 224 211.2H242.72C243.689 214.523 245.71 217.443 248.48 219.52C251.25 221.597 254.618 222.72 258.08 222.72C261.542 222.72 264.91 221.597 267.68 219.52C270.45 217.443 272.471 214.523 273.44 211.2H288C292.243 211.2 296.313 209.514 299.314 206.514C302.314 203.513 304 199.443 304 195.2V144C304 139.757 302.314 135.687 299.314 132.686C296.313 129.686 292.243 128 288 128H240V108.8H288Z" fill="#061B1E"/>
</svg>
