<svg width="512" height="512" viewBox="0 0 512 512" fill="none" xmlns="http://www.w3.org/2000/svg">
<path d="M88 115.04H312C316.243 115.04 320.313 113.354 323.314 110.354C326.314 107.353 328 103.283 328 99.04C328 94.7965 326.314 90.7269 323.314 87.7263C320.313 84.7257 316.243 83.04 312 83.04H88C83.7565 83.04 79.6869 84.7257 76.6863 87.7263C73.6857 90.7269 72 94.7965 72 99.04C72 103.283 73.6857 107.353 76.6863 110.354C79.6869 113.354 83.7565 115.04 88 115.04Z" fill="#061B1E"/>
<path d="M88 221.6H312C316.243 221.6 320.313 219.914 323.314 216.914C326.314 213.913 328 209.843 328 205.6C328 201.357 326.314 197.287 323.314 194.286C320.313 191.286 316.243 189.6 312 189.6H88C83.7565 189.6 79.6869 191.286 76.6863 194.286C73.6857 197.287 72 201.357 72 205.6C72 209.843 73.6857 213.913 76.6863 216.914C79.6869 219.914 83.7565 221.6 88 221.6Z" fill="#061B1E"/>
<path d="M384 241.12V64C384 51.2696 378.943 39.0606 369.941 30.0589C360.939 21.0571 348.73 16 336 16H64C51.2696 16 39.0606 21.0571 30.0589 30.0589C21.0571 39.0606 16 51.2696 16 64V448C16 460.73 21.0571 472.939 30.0589 481.941C39.0606 490.943 51.2696 496 64 496H336C340.008 495.953 343.992 495.361 347.84 494.24C354.498 495.396 361.242 495.984 368 496C400.408 495.779 431.525 483.273 455.073 461.005C478.621 438.738 492.845 408.367 494.875 376.022C496.906 343.677 486.591 311.766 466.013 286.729C445.435 261.692 416.126 245.392 384 241.12ZM64 464C59.7565 464 55.6869 462.314 52.6863 459.314C49.6857 456.313 48 452.243 48 448V64C48 59.7565 49.6857 55.6869 52.6863 52.6863C55.6869 49.6857 59.7565 48 64 48H336C340.243 48 344.313 49.6857 347.314 52.6863C350.314 55.6869 352 59.7565 352 64V241.12C333.95 243.402 316.593 249.505 301.088 259.024C285.582 268.542 272.284 281.257 262.08 296.32H88C83.7565 296.32 79.6869 298.006 76.6863 301.006C73.6857 304.007 72 308.077 72 312.32C72 316.563 73.6857 320.633 76.6863 323.634C79.6869 326.634 83.7565 328.32 88 328.32H246.4C242.14 341.115 239.978 354.515 240 368C240.01 379.854 241.68 391.649 244.96 403.04H88C83.7565 403.04 79.6869 404.726 76.6863 407.726C73.6857 410.727 72 414.797 72 419.04C72 423.283 73.6857 427.353 76.6863 430.354C79.6869 433.354 83.7565 435.04 88 435.04H259.2C265.841 445.881 274.096 455.646 283.68 464H64ZM368 464C349.013 464 330.452 458.37 314.665 447.821C298.878 437.272 286.574 422.279 279.308 404.738C272.042 387.196 270.14 367.894 273.845 349.271C277.549 330.649 286.692 313.544 300.118 300.118C313.544 286.692 330.649 277.549 349.271 273.845C367.894 270.14 387.196 272.042 404.738 279.308C422.279 286.574 437.272 298.878 447.821 314.665C458.37 330.452 464 349.013 464 368C464 393.461 453.886 417.879 435.882 435.882C417.879 453.886 393.461 464 368 464Z" fill="#061B1E"/>
<path d="M396.64 316.64L316.64 396.64C315.14 398.127 313.95 399.897 313.138 401.847C312.325 403.797 311.907 405.888 311.907 408C311.907 410.112 312.325 412.203 313.138 414.153C313.95 416.103 315.14 417.873 316.64 419.36C318.127 420.86 319.897 422.05 321.847 422.862C323.797 423.675 325.888 424.093 328 424.093C330.112 424.093 332.203 423.675 334.153 422.862C336.103 422.05 337.873 420.86 339.36 419.36L419.36 339.36C420.852 337.868 422.035 336.097 422.843 334.148C423.65 332.199 424.065 330.11 424.065 328C424.065 325.89 423.65 323.801 422.843 321.852C422.035 319.903 420.852 318.132 419.36 316.64C417.868 315.148 416.097 313.965 414.148 313.157C412.199 312.35 410.11 311.935 408 311.935C405.89 311.935 403.801 312.35 401.852 313.157C399.903 313.965 398.132 315.148 396.64 316.64Z" fill="#061B1E"/>
<path d="M408 392H406.4C402.297 392.205 398.43 393.981 395.6 396.96C392.771 399.939 391.195 403.892 391.2 408C391.197 410.17 391.636 412.318 392.49 414.314C393.344 416.309 394.594 418.11 396.166 419.606C397.737 421.103 399.597 422.264 401.631 423.02C403.666 423.775 405.833 424.109 408 424C412.244 424 416.313 422.314 419.314 419.314C422.314 416.313 424 412.243 424 408C424 403.757 422.314 399.687 419.314 396.686C416.313 393.686 412.244 392 408 392Z" fill="#061B1E"/>
<path d="M329.6 344C333.843 344 337.913 342.314 340.914 339.314C343.914 336.313 345.6 332.243 345.6 328C345.6 323.757 343.914 319.687 340.914 316.686C337.913 313.686 333.843 312 329.6 312H328C323.897 312.205 320.029 313.981 317.2 316.96C314.37 319.939 312.795 323.892 312.8 328C312.797 330.17 313.236 332.318 314.09 334.314C314.943 336.309 316.194 338.11 317.765 339.606C319.337 341.103 321.196 342.264 323.231 343.02C325.265 343.775 327.432 344.109 329.6 344Z" fill="#061B1E"/>
</svg>
