<svg width="512" height="512" viewBox="0 0 512 512" fill="none" xmlns="http://www.w3.org/2000/svg">
<path d="M480 400H472V368C472 363.757 470.314 359.687 467.314 356.686C464.313 353.686 460.243 352 456 352V256C460.243 256 464.313 254.314 467.314 251.314C470.314 248.313 472 244.243 472 240V208H480C483.372 207.978 486.652 206.892 489.37 204.895C492.088 202.899 494.105 200.094 495.134 196.883C496.164 193.671 496.152 190.217 495.1 187.012C494.049 183.808 492.012 181.018 489.28 179.04L265.28 19.04C262.57 17.1106 259.326 16.0739 256 16.0739C252.674 16.0739 249.43 17.1106 246.72 19.04L22.72 179.04C19.9882 181.018 17.9512 183.808 16.8998 187.012C15.8484 190.217 15.8365 193.671 16.8656 196.883C17.8947 200.094 19.9123 202.899 22.6303 204.895C25.3483 206.892 28.6276 207.978 32 208H40V240C40 244.243 41.6857 248.313 44.6863 251.314C47.6869 254.314 51.7565 256 56 256V352C51.7565 352 47.6869 353.686 44.6863 356.686C41.6857 359.687 40 363.757 40 368V400H32C27.7565 400 23.6869 401.686 20.6863 404.686C17.6857 407.687 16 411.757 16 416V480C16 484.243 17.6857 488.313 20.6863 491.314C23.6869 494.314 27.7565 496 32 496H480C484.243 496 488.313 494.314 491.314 491.314C494.314 488.313 496 484.243 496 480V416C496 411.757 494.314 407.687 491.314 404.686C488.313 401.686 484.243 400 480 400ZM392 400V384H440V400H392ZM136 352V256C140.243 256 144.313 254.314 147.314 251.314C150.314 248.313 152 244.243 152 240V208H360V240C360 244.243 361.686 248.313 364.686 251.314C367.687 254.314 371.757 256 376 256V352C371.757 352 367.687 353.686 364.686 356.686C361.686 359.687 360 363.757 360 368V400H152V368C152 363.757 150.314 359.687 147.314 356.686C144.313 353.686 140.243 352 136 352ZM424 352H408V256H424V352ZM440 224H392V208H440V224ZM256 51.68L430.08 176H81.92L256 51.68ZM120 208V224H72V208H120ZM88 256H104V352H88V256ZM72 384H120V400H72V384ZM464 464H48V432H464V464Z" fill="#061B1E"/>
</svg>
