<svg width="512" height="512" viewBox="0 0 512 512" fill="none" xmlns="http://www.w3.org/2000/svg">
<path d="M320 80C283.891 79.934 248.659 91.1189 219.2 112H64C51.2696 112 39.0606 117.057 30.0589 126.059C21.0571 135.061 16 147.27 16 160V192C16.0706 203.841 20.5154 215.238 28.48 224C20.5154 232.762 16.0706 244.159 16 256V288C16.0706 299.841 20.5154 311.238 28.48 320C20.5154 328.762 16.0706 340.159 16 352V384C16 396.73 21.0571 408.939 30.0589 417.941C39.0606 426.943 51.2696 432 64 432H224C235.82 431.973 247.214 427.587 256 419.68C280.117 429.211 306.042 433.295 331.921 431.64C357.799 429.985 382.993 422.631 405.699 410.106C428.405 397.58 448.063 380.192 463.266 359.184C478.469 338.177 488.843 314.069 493.644 288.586C498.445 263.103 497.556 236.873 491.04 211.773C484.524 186.674 472.542 163.324 455.951 143.394C439.36 123.465 418.569 107.447 395.067 96.4882C371.565 85.5291 345.932 79.8988 320 80ZM48 160C48 155.757 49.6857 151.687 52.6863 148.686C55.6869 145.686 59.7565 144 64 144H184.32C168.87 162.793 157.483 184.585 150.88 208H64C59.7565 208 55.6869 206.314 52.6863 203.314C49.6857 200.313 48 196.243 48 192V160ZM48 288V256C48 251.757 49.6857 247.687 52.6863 244.686C55.6869 241.686 59.7565 240 64 240H144.8C144.8 245.28 144 250.56 144 256C143.996 272.246 146.312 288.409 150.88 304H64C59.7565 304 55.6869 302.314 52.6863 299.314C49.6857 296.313 48 292.243 48 288ZM64 400C59.7565 400 55.6869 398.314 52.6863 395.314C49.6857 392.313 48 388.243 48 384V352C48 347.757 49.6857 343.687 52.6863 340.686C55.6869 337.686 59.7565 336 64 336H163.36C176.534 361.528 195.693 383.487 219.2 400H64ZM320 400C291.519 400 263.679 391.555 239.998 375.732C216.317 359.909 197.86 337.419 186.961 311.106C176.062 284.794 173.211 255.84 178.767 227.907C184.323 199.974 198.038 174.315 218.177 154.177C238.315 134.038 263.974 120.323 291.907 114.767C319.84 109.211 348.794 112.062 375.106 122.961C401.419 133.86 423.909 152.317 439.732 175.998C455.555 199.679 464 227.519 464 256C464 294.191 448.829 330.818 421.823 357.823C394.818 384.829 358.191 400 320 400Z" fill="#061B1E"/>
<path d="M360 192C364.243 192 368.313 190.314 371.314 187.314C374.314 184.313 376 180.243 376 176C376 171.757 374.314 167.687 371.314 164.686C368.313 161.686 364.243 160 360 160H336V144C336 139.757 334.314 135.687 331.314 132.686C328.313 129.686 324.243 128 320 128C315.757 128 311.687 129.686 308.686 132.686C305.686 135.687 304 139.757 304 144V160H296C287.513 160 279.374 163.371 273.373 169.373C267.371 175.374 264 183.513 264 192V240C264 248.487 267.371 256.626 273.373 262.627C279.374 268.629 287.513 272 296 272H344V320H280C275.757 320 271.687 321.686 268.686 324.686C265.686 327.687 264 331.757 264 336C264 340.243 265.686 344.313 268.686 347.314C271.687 350.314 275.757 352 280 352H304V368C304 372.243 305.686 376.313 308.686 379.314C311.687 382.314 315.757 384 320 384C324.243 384 328.313 382.314 331.314 379.314C334.314 376.313 336 372.243 336 368V352H344C352.487 352 360.626 348.629 366.627 342.627C372.629 336.626 376 328.487 376 320V272C376 263.513 372.629 255.374 366.627 249.373C360.626 243.371 352.487 240 344 240H296V192H360Z" fill="#061B1E"/>
</svg>
