<svg width="512" height="512" viewBox="0 0 512 512" fill="none" xmlns="http://www.w3.org/2000/svg">
<path d="M448 80H64C51.2696 80 39.0606 85.0571 30.0589 94.0589C21.0571 103.061 16 115.27 16 128V384C16 396.73 21.0571 408.939 30.0589 417.941C39.0606 426.943 51.2696 432 64 432H448C460.73 432 472.939 426.943 481.941 417.941C490.943 408.939 496 396.73 496 384V128C496 115.27 490.943 103.061 481.941 94.0589C472.939 85.0571 460.73 80 448 80ZM64 112H448C452.243 112 456.313 113.686 459.314 116.686C462.314 119.687 464 123.757 464 128V160H48V128C48 123.757 49.6857 119.687 52.6863 116.686C55.6869 113.686 59.7565 112 64 112ZM464 192V240H48V192H464ZM448 400H64C59.7565 400 55.6869 398.314 52.6863 395.314C49.6857 392.313 48 388.243 48 384V272H464V384C464 388.243 462.314 392.313 459.314 395.314C456.313 398.314 452.243 400 448 400Z" fill="#061B1E"/>
<path d="M130.24 336H98.2402C93.9968 336 89.9271 337.686 86.9265 340.686C83.9259 343.687 82.2402 347.757 82.2402 352C82.2402 356.243 83.9259 360.313 86.9265 363.314C89.9271 366.314 93.9968 368 98.2402 368H130.24C134.484 368 138.553 366.314 141.554 363.314C144.555 360.313 146.24 356.243 146.24 352C146.24 347.757 144.555 343.687 141.554 340.686C138.553 337.686 134.484 336 130.24 336Z" fill="#061B1E"/>
<path d="M400 288C390.507 288 381.226 290.815 373.333 296.089C365.439 301.364 359.287 308.86 355.654 317.631C352.021 326.402 351.07 336.053 352.922 345.364C354.774 354.675 359.346 363.228 366.059 369.941C372.772 376.654 381.325 381.226 390.636 383.078C399.947 384.93 409.598 383.979 418.369 380.346C427.14 376.713 434.636 370.561 439.911 362.667C445.185 354.774 448 345.494 448 336C448 323.27 442.943 311.061 433.941 302.059C424.939 293.057 412.73 288 400 288ZM400 352C396.836 352 393.742 351.062 391.111 349.304C388.48 347.545 386.429 345.047 385.218 342.123C384.007 339.199 383.69 335.982 384.307 332.879C384.925 329.775 386.449 326.924 388.686 324.686C390.924 322.449 393.775 320.925 396.879 320.307C399.982 319.69 403.199 320.007 406.123 321.218C409.047 322.429 411.545 324.48 413.304 327.111C415.062 329.742 416 332.835 416 336C416 340.243 414.314 344.313 411.314 347.314C408.313 350.314 404.243 352 400 352Z" fill="#061B1E"/>
</svg>
