<svg width="512" height="512" viewBox="0 0 512 512" fill="none" xmlns="http://www.w3.org/2000/svg">
<path d="M481.92 414.08L345.6 277.76C366.315 240.67 372.915 197.338 364.182 155.762C355.449 114.186 331.973 77.1722 298.085 51.5509C264.197 25.9296 222.186 13.4304 179.804 16.3599C137.422 19.2895 97.53 37.45 67.4899 67.4902C37.4497 97.5303 19.2892 137.422 16.3596 179.804C13.4301 222.186 25.9293 264.198 51.5506 298.085C77.1719 331.973 114.186 355.449 155.762 364.182C197.338 372.915 240.669 366.315 277.76 345.6L414.08 481.92C423.179 490.399 435.214 495.015 447.649 494.795C460.084 494.576 471.949 489.538 480.743 480.744C489.538 471.949 494.575 460.085 494.795 447.649C495.014 435.214 490.398 423.179 481.92 414.08ZM47.9997 192C47.9997 163.519 56.4451 135.679 72.2681 111.998C88.091 88.3172 110.581 69.8603 136.893 58.9613C163.206 48.0623 192.159 45.2106 220.093 50.7669C248.026 56.3232 273.684 70.0378 293.823 90.1766C313.962 110.315 327.676 135.974 333.233 163.907C338.789 191.84 335.937 220.794 325.038 247.106C314.139 273.419 295.682 295.909 272.002 311.732C248.321 327.555 220.48 336 192 336C153.809 336 117.182 320.829 90.1763 293.823C63.1711 266.818 47.9997 230.191 47.9997 192ZM459.36 459.36C457.872 460.86 456.103 462.05 454.153 462.862C452.203 463.675 450.112 464.093 448 464.093C445.887 464.093 443.796 463.675 441.846 462.862C439.897 462.05 438.127 460.86 436.64 459.36L304 327.2C312.465 320.235 320.235 312.466 327.2 304L459.36 436.16C460.933 437.655 462.186 439.454 463.042 441.448C463.898 443.442 464.34 445.59 464.34 447.76C464.34 449.93 463.898 452.078 463.042 454.072C462.186 456.066 460.933 457.865 459.36 459.36Z" fill="#061B1E"/>
<path d="M224 144C228.243 144 232.313 142.314 235.314 139.314C238.314 136.313 240 132.243 240 128C240 123.757 238.314 119.687 235.314 116.686C232.313 113.686 228.243 112 224 112H208V102.4C208 98.1566 206.314 94.0869 203.314 91.0863C200.313 88.0857 196.243 86.4 192 86.4C187.757 86.4 183.687 88.0857 180.686 91.0863C177.686 94.0869 176 98.1566 176 102.4V112H172.8C165.175 112.042 157.874 115.09 152.482 120.482C147.09 125.874 144.042 133.175 144 140.8V179.2C144.042 186.825 147.09 194.126 152.482 199.518C157.874 204.91 165.175 207.958 172.8 208H208V240H160C155.757 240 151.687 241.686 148.686 244.686C145.686 247.687 144 251.757 144 256C144 260.243 145.686 264.313 148.686 267.314C151.687 270.314 155.757 272 160 272H176V281.6C176 285.844 177.686 289.913 180.686 292.914C183.687 295.914 187.757 297.6 192 297.6C196.243 297.6 200.313 295.914 203.314 292.914C206.314 289.913 208 285.844 208 281.6V272H211.2C218.825 271.958 226.126 268.91 231.518 263.518C236.91 258.126 239.958 250.825 240 243.2V204.8C239.958 197.175 236.91 189.874 231.518 184.482C226.126 179.09 218.825 176.042 211.2 176H176V144H224Z" fill="#061B1E"/>
</svg>
