<svg width="512" height="512" viewBox="0 0 512 512" fill="none" xmlns="http://www.w3.org/2000/svg">
<path d="M448 16H64C51.2696 16 39.0606 21.0571 30.0589 30.0589C21.0571 39.0606 16 51.2696 16 64V448C16 460.73 21.0571 472.939 30.0589 481.941C39.0606 490.943 51.2696 496 64 496H448C460.73 496 472.939 490.943 481.941 481.941C490.943 472.939 496 460.73 496 448V64C496 51.2696 490.943 39.0606 481.941 30.0589C472.939 21.0571 460.73 16 448 16ZM464 448C464 452.243 462.314 456.313 459.314 459.314C456.313 462.314 452.243 464 448 464H64C59.7565 464 55.6869 462.314 52.6863 459.314C49.6857 456.313 48 452.243 48 448V64C48 59.7565 49.6857 55.6869 52.6863 52.6863C55.6869 49.6857 59.7565 48 64 48H448C452.243 48 456.313 49.6857 459.314 52.6863C462.314 55.6869 464 59.7565 464 64V448Z" fill="#061B1E"/>
<path d="M448 160C448 155.757 446.314 151.687 443.314 148.686C440.313 145.686 436.243 144 432 144V128C432 115.27 426.943 103.061 417.941 94.0589C408.939 85.0571 396.73 80 384 80H128C115.27 80 103.061 85.0571 94.0589 94.0589C85.0571 103.061 80 115.27 80 128V384C80 396.73 85.0571 408.939 94.0589 417.941C103.061 426.943 115.27 432 128 432H384C396.73 432 408.939 426.943 417.941 417.941C426.943 408.939 432 396.73 432 384V368C436.243 368 440.313 366.314 443.314 363.314C446.314 360.313 448 356.243 448 352C448 347.757 446.314 343.687 443.314 340.686C440.313 337.686 436.243 336 432 336V176C436.243 176 440.313 174.314 443.314 171.314C446.314 168.313 448 164.243 448 160ZM400 336C395.757 336 391.687 337.686 388.686 340.686C385.686 343.687 384 347.757 384 352C384 356.243 385.686 360.313 388.686 363.314C391.687 366.314 395.757 368 400 368V384C400 388.243 398.314 392.313 395.314 395.314C392.313 398.314 388.243 400 384 400H128C123.757 400 119.687 398.314 116.686 395.314C113.686 392.313 112 388.243 112 384V128C112 123.757 113.686 119.687 116.686 116.686C119.687 113.686 123.757 112 128 112H384C388.243 112 392.313 113.686 395.314 116.686C398.314 119.687 400 123.757 400 128V144C395.757 144 391.687 145.686 388.686 148.686C385.686 151.687 384 155.757 384 160C384 164.243 385.686 168.313 388.686 171.314C391.687 174.314 395.757 176 400 176V336Z" fill="#061B1E"/>
<path d="M256 144C233.849 144 212.194 150.569 193.776 162.875C175.358 175.182 161.003 192.674 152.526 213.139C144.049 233.605 141.831 256.124 146.152 277.85C150.474 299.576 161.141 319.532 176.804 335.196C192.468 350.859 212.424 361.526 234.15 365.848C255.876 370.17 278.395 367.952 298.861 359.475C319.326 350.998 336.818 336.642 349.125 318.224C361.431 299.806 368 278.152 368 256C368 226.296 356.2 197.808 335.196 176.804C314.192 155.8 285.704 144 256 144ZM256 336C240.178 336 224.71 331.308 211.554 322.518C198.398 313.727 188.145 301.233 182.09 286.615C176.035 271.997 174.45 255.911 177.537 240.393C180.624 224.874 188.243 210.62 199.432 199.431C210.62 188.243 224.874 180.624 240.393 177.537C255.911 174.45 271.997 176.035 286.615 182.09C301.233 188.145 313.727 198.398 322.518 211.554C331.308 224.71 336 240.177 336 256C336 277.217 327.571 297.566 312.569 312.569C297.566 327.571 277.217 336 256 336Z" fill="#061B1E"/>
<path d="M256 192C243.342 192 230.968 195.754 220.444 202.786C209.919 209.818 201.716 219.814 196.872 231.508C192.028 243.203 190.76 256.071 193.23 268.486C195.699 280.901 201.795 292.304 210.745 301.255C219.696 310.205 231.099 316.301 243.514 318.77C255.929 321.24 268.797 319.972 280.492 315.128C292.186 310.284 302.182 302.081 309.214 291.556C316.246 281.032 320 268.658 320 256C320 239.026 313.257 222.747 301.255 210.745C289.253 198.743 272.974 192 256 192ZM256 288C249.671 288 243.484 286.123 238.222 282.607C232.959 279.091 228.858 274.093 226.436 268.246C224.014 262.399 223.38 255.965 224.615 249.757C225.85 243.55 228.897 237.848 233.373 233.373C237.848 228.897 243.55 225.85 249.757 224.615C255.965 223.38 262.399 224.014 268.246 226.436C274.093 228.858 279.091 232.959 282.607 238.222C286.123 243.484 288 249.671 288 256C288 264.487 284.629 272.626 278.627 278.627C272.626 284.629 264.487 288 256 288Z" fill="#061B1E"/>
</svg>
