<svg width="512" height="512" viewBox="0 0 512 512" fill="none" xmlns="http://www.w3.org/2000/svg">
<path d="M492.48 246.08L432 170.4V80C432 75.7565 430.314 71.6869 427.314 68.6863C424.313 65.6857 420.243 64 416 64H317.76C314.076 50.4421 306.032 38.4733 294.87 29.9402C283.709 21.4072 270.05 16.784 256 16.784C241.95 16.784 228.291 21.4072 217.13 29.9402C205.968 38.4733 197.925 50.4421 194.24 64H129.12C84.64 64 80 64 80 80V170.24L19.52 246.08C17.8131 248.339 16.736 251.01 16.3986 253.821C16.0613 256.632 16.4759 259.482 17.6 262.08C18.7789 264.952 20.7681 267.42 23.325 269.181C25.8819 270.943 28.8961 271.922 32 272H160C163.016 271.991 165.968 271.131 168.516 269.517C171.063 267.904 173.103 265.603 174.4 262.88C175.524 260.282 175.939 257.432 175.601 254.621C175.264 251.81 174.187 249.139 172.48 246.88L112 170.4V96H194.24C197.714 109.239 205.34 121.015 216 129.6V336H192C187.757 336 183.687 337.686 180.686 340.686C177.686 343.687 176 347.757 176 352V400H96C91.7566 400 87.6869 401.686 84.6863 404.686C81.6857 407.687 80 411.757 80 416V480C80 484.243 81.6857 488.313 84.6863 491.314C87.6869 494.314 91.7566 496 96 496H416C420.243 496 424.313 494.314 427.314 491.314C430.314 488.313 432 484.243 432 480V416C432 411.757 430.314 407.687 427.314 404.686C424.313 401.686 420.243 400 416 400H336V352C336 347.757 334.314 343.687 331.314 340.686C328.313 337.686 324.243 336 320 336H296V129.6C306.66 121.015 314.286 109.239 317.76 96H400V170.24L339.52 245.92C337.813 248.179 336.736 250.85 336.399 253.661C336.061 256.472 336.476 259.322 337.6 261.92C338.754 264.822 340.733 267.323 343.292 269.115C345.851 270.906 348.878 271.909 352 272H480C483.016 271.991 485.968 271.131 488.516 269.517C491.063 267.904 493.103 265.603 494.4 262.88C495.681 260.18 496.18 257.175 495.841 254.206C495.501 251.236 494.337 248.422 492.48 246.08ZM65.28 240L96 201.6L126.72 240H65.28ZM256 48C262.329 48 268.516 49.8768 273.778 53.393C279.041 56.9092 283.142 61.9069 285.564 67.7541C287.986 73.6014 288.62 80.0355 287.385 86.2429C286.15 92.4503 283.103 98.1521 278.627 102.627C274.152 107.103 268.45 110.15 262.243 111.385C256.036 112.62 249.601 111.986 243.754 109.564C237.907 107.142 232.909 103.041 229.393 97.7782C225.877 92.5159 224 86.329 224 80C224 71.5131 227.371 63.3737 233.373 57.3726C239.374 51.3714 247.513 48 256 48ZM400 464H112V432H400V464ZM304 400H208V368H304V400ZM264 336H248V144C250.664 144.158 253.336 144.158 256 144C258.664 144.158 261.336 144.158 264 144V336ZM385.28 240L416 201.6L446.72 240H385.28Z" fill="#061B1E"/>
</svg>
