<svg width="512" height="512" viewBox="0 0 512 512" fill="none" xmlns="http://www.w3.org/2000/svg">
<path d="M448 144H416V64C416 51.2696 410.943 39.0606 401.941 30.0589C392.939 21.0571 380.73 16 368 16H144C131.27 16 119.061 21.0571 110.059 30.0589C101.057 39.0606 96 51.2696 96 64V144H64C51.2696 144 39.0606 149.057 30.0589 158.059C21.0571 167.061 16 179.27 16 192V448C16 460.73 21.0571 472.939 30.0589 481.941C39.0606 490.943 51.2696 496 64 496H448C460.73 496 472.939 490.943 481.941 481.941C490.943 472.939 496 460.73 496 448V192C496 179.27 490.943 167.061 481.941 158.059C472.939 149.057 460.73 144 448 144ZM169.44 320L48 441.44V198.56L169.44 320ZM192 342.56L244.64 395.36C246.127 396.86 247.897 398.05 249.847 398.862C251.797 399.675 253.888 400.093 256 400.093C258.112 400.093 260.203 399.675 262.153 398.862C264.103 398.05 265.873 396.86 267.36 395.36L320 342.56L441.44 464H70.56L192 342.56ZM342.56 320L464 198.56V441.44L342.56 320ZM441.44 176L416 201.44V176H441.44ZM144 48H368C372.243 48 376.313 49.6857 379.314 52.6863C382.314 55.6869 384 59.7565 384 64V233.44L256 361.44L128 233.44V64C128 59.7565 129.686 55.6869 132.686 52.6863C135.687 49.6857 139.757 48 144 48ZM96 201.44L70.56 176H96V201.44Z" fill="#061B1E"/>
<path d="M160 112H167.68V144C167.68 148.243 169.366 152.313 172.366 155.314C175.367 158.314 179.437 160 183.68 160C187.923 160 191.993 158.314 194.994 155.314C197.994 152.313 199.68 148.243 199.68 144V112H208C212.243 112 216.313 110.314 219.314 107.314C222.314 104.313 224 100.243 224 96C224 91.7565 222.314 87.6869 219.314 84.6863C216.313 81.6857 212.243 80 208 80H160C155.757 80 151.687 81.6857 148.686 84.6863C145.686 87.6869 144 91.7565 144 96C144 100.243 145.686 104.313 148.686 107.314C151.687 110.314 155.757 112 160 112Z" fill="#061B1E"/>
<path d="M217.92 156.64C219.782 157.704 221.839 158.384 223.968 158.638C226.098 158.891 228.256 158.714 230.316 158.117C232.376 157.52 234.295 156.515 235.958 155.162C237.622 153.809 238.996 152.135 240 150.24L250.88 130.4L260.8 149.92C262.152 152.529 264.196 154.715 266.707 156.239C269.219 157.763 272.102 158.566 275.04 158.56C277.599 158.57 280.123 157.967 282.4 156.8C286.141 154.854 288.962 151.51 290.25 147.495C291.538 143.48 291.19 139.119 289.28 135.36L264.96 88.6401C263.634 86.0791 261.64 83.9241 259.19 82.4032C256.74 80.8823 253.924 80.052 251.04 80.0001C248.108 79.9338 245.214 80.6748 242.674 82.1421C240.135 83.6095 238.047 85.7466 236.64 88.3201L211.36 135.04C209.376 138.776 208.952 143.146 210.182 147.194C211.411 151.242 214.193 154.638 217.92 156.64Z" fill="#061B1E"/>
<path d="M297.76 154.4C300.735 157.104 304.619 158.59 308.64 158.56C310.779 158.51 312.887 158.031 314.839 157.151C316.79 156.272 318.545 155.01 320 153.44L329.92 142.88L339.84 153.44C341.332 155.049 343.138 156.333 345.148 157.214C347.157 158.095 349.326 158.553 351.52 158.56C355.54 158.59 359.425 157.104 362.4 154.4C363.953 152.966 365.207 151.239 366.088 149.317C366.97 147.396 367.462 145.319 367.537 143.207C367.611 141.094 367.266 138.988 366.522 137.009C365.777 135.031 364.648 133.22 363.2 131.68L352 119.36L363.52 106.88C365.121 105.381 366.398 103.569 367.27 101.556C368.141 99.5433 368.59 97.3727 368.587 95.1791C368.585 92.9856 368.131 90.816 367.255 88.8051C366.379 86.7942 365.098 84.985 363.493 83.4898C361.888 81.9947 359.993 80.8456 357.925 80.1139C355.857 79.3821 353.66 79.0834 351.472 79.2363C349.284 79.3892 347.151 79.9904 345.205 81.0025C343.258 82.0147 341.541 83.4162 340.16 85.12L330.4 96L320 85.12C317.114 82.0011 313.108 80.1562 308.862 79.9911C304.616 79.8261 300.479 81.3545 297.36 84.24C294.241 87.1256 292.396 91.1319 292.231 95.3778C292.066 99.6236 293.594 103.761 296.48 106.88L308 119.36L296.48 131.68C295.061 133.25 293.967 135.087 293.263 137.082C292.559 139.078 292.257 141.194 292.376 143.307C292.495 145.42 293.032 147.489 293.957 149.393C294.881 151.297 296.173 152.999 297.76 154.4Z" fill="#061B1E"/>
<path d="M336 192H176C171.757 192 167.687 193.686 164.686 196.686C161.686 199.687 160 203.757 160 208C160 212.243 161.686 216.313 164.686 219.314C167.687 222.314 171.757 224 176 224H336C340.243 224 344.313 222.314 347.314 219.314C350.314 216.313 352 212.243 352 208C352 203.757 350.314 199.687 347.314 196.686C344.313 193.686 340.243 192 336 192Z" fill="#061B1E"/>
</svg>
