<svg width="512" height="512" viewBox="0 0 512 512" fill="none" xmlns="http://www.w3.org/2000/svg">
<path d="M448 80H64C51.2696 80 39.0606 85.0571 30.0589 94.0589C21.0571 103.061 16 115.27 16 128V384C16 396.73 21.0571 408.939 30.0589 417.941C39.0606 426.943 51.2696 432 64 432H448C460.73 432 472.939 426.943 481.941 417.941C490.943 408.939 496 396.73 496 384V128C496 115.27 490.943 103.061 481.941 94.0589C472.939 85.0571 460.73 80 448 80ZM464 128V141.12C457.29 138.731 451.195 134.878 446.158 129.842C441.122 124.805 437.269 118.71 434.88 112H448C452.243 112 456.313 113.686 459.314 116.686C462.314 119.687 464 123.757 464 128ZM401.6 400H110.4C107.265 384.626 99.6771 370.513 88.5821 359.418C77.4871 348.323 63.3743 340.735 48 337.6V174.4C63.3743 171.265 77.4871 163.677 88.5821 152.582C99.6771 141.487 107.265 127.374 110.4 112H401.6C404.735 127.374 412.323 141.487 423.418 152.582C434.513 163.677 448.626 171.265 464 174.4V337.6C448.626 340.735 434.513 348.323 423.418 359.418C412.323 370.513 404.735 384.626 401.6 400ZM64 112H77.12C74.7309 118.71 70.8783 124.805 65.8416 129.842C60.8049 134.878 54.7104 138.731 48 141.12V128C48 123.757 49.6857 119.687 52.6863 116.686C55.6869 113.686 59.7565 112 64 112ZM48 384V370.88C54.7104 373.269 60.8049 377.122 65.8416 382.158C70.8783 387.195 74.7309 393.29 77.12 400H64C59.7565 400 55.6869 398.314 52.6863 395.314C49.6857 392.313 48 388.243 48 384ZM448 400H434.88C437.269 393.29 441.122 387.195 446.158 382.158C451.195 377.122 457.29 373.269 464 370.88V384C464 388.243 462.314 392.313 459.314 395.314C456.313 398.314 452.243 400 448 400Z" fill="#061B1E"/>
<path d="M128 240H96C91.7565 240 87.6869 241.686 84.6863 244.686C81.6857 247.687 80 251.757 80 256C80 260.243 81.6857 264.313 84.6863 267.314C87.6869 270.314 91.7565 272 96 272H128C132.243 272 136.313 270.314 139.314 267.314C142.314 264.313 144 260.243 144 256C144 251.757 142.314 247.687 139.314 244.686C136.313 241.686 132.243 240 128 240Z" fill="#061B1E"/>
<path d="M416 240H384C379.757 240 375.687 241.686 372.686 244.686C369.686 247.687 368 251.757 368 256C368 260.243 369.686 264.313 372.686 267.314C375.687 270.314 379.757 272 384 272H416C420.243 272 424.313 270.314 427.314 267.314C430.314 264.313 432 260.243 432 256C432 251.757 430.314 247.687 427.314 244.686C424.313 241.686 420.243 240 416 240Z" fill="#061B1E"/>
<path d="M296 192C300.243 192 304.313 190.314 307.314 187.314C310.314 184.313 312 180.243 312 176C312 171.757 310.314 167.687 307.314 164.686C304.313 161.686 300.243 160 296 160H272V144C272 139.757 270.314 135.687 267.314 132.686C264.313 129.686 260.243 128 256 128C251.757 128 247.687 129.686 244.686 132.686C241.686 135.687 240 139.757 240 144V160H232C223.513 160 215.374 163.371 209.373 169.373C203.371 175.374 200 183.513 200 192V240C200 248.487 203.371 256.626 209.373 262.627C215.374 268.629 223.513 272 232 272H280V320H216C211.757 320 207.687 321.686 204.686 324.686C201.686 327.687 200 331.757 200 336C200 340.243 201.686 344.313 204.686 347.314C207.687 350.314 211.757 352 216 352H240V368C240 372.243 241.686 376.313 244.686 379.314C247.687 382.314 251.757 384 256 384C260.243 384 264.313 382.314 267.314 379.314C270.314 376.313 272 372.243 272 368V352H280C288.487 352 296.626 348.629 302.627 342.627C308.629 336.626 312 328.487 312 320V272C312 263.513 308.629 255.374 302.627 249.373C296.626 243.371 288.487 240 280 240H232V192H296Z" fill="#061B1E"/>
</svg>
