<svg width="512" height="512" viewBox="0 0 512 512" fill="none" xmlns="http://www.w3.org/2000/svg">
<path d="M494.72 437.44C494.793 436.642 494.793 435.838 494.72 435.04L371.04 131.04L419.04 74.4C423.181 69.4297 425.718 63.3212 426.317 56.8798C426.916 50.4385 425.549 43.9668 422.395 38.3183C419.242 32.6698 414.45 28.1098 408.653 25.2394C402.855 22.3691 396.324 21.3233 389.92 22.24L355.68 27.04C333.112 30.4144 310.096 29.2173 288 23.52L259.84 16C257.318 15.3765 254.682 15.3765 252.16 16L224 23.52C202.405 28.9508 179.955 30.0924 157.92 26.88L123.68 22.08C117.263 21.1237 110.707 22.1405 104.881 24.9956C99.0557 27.8507 94.2353 32.4091 91.0595 38.0665C87.8837 43.7239 86.5026 50.2129 87.0992 56.6732C87.6958 63.1336 90.2421 69.2599 94.4002 74.24L141.6 130.88L17.9202 434.88C17.8478 435.678 17.8478 436.482 17.9202 437.28C16.2724 444.2 16.2378 451.407 17.8192 458.343C19.4005 465.279 22.5555 471.758 27.0402 477.28C31.5768 483.057 37.355 487.739 43.9469 490.98C50.5387 494.22 57.7752 495.936 65.1202 496H446.88C454.32 496.052 461.674 494.407 468.383 491.191C475.093 487.975 480.981 483.272 485.6 477.44C490.085 471.918 493.24 465.439 494.821 458.503C496.403 451.567 496.368 444.36 494.72 437.44ZM153.28 58.56C179.424 62.3601 206.059 61.0012 231.68 54.56L256 48L280.32 54.08C305.93 60.6005 332.58 61.9602 358.72 58.08L393.12 53.28L344.48 112H167.52L119.52 53.76L153.28 58.56ZM460.64 457.44C458.985 459.495 456.889 461.151 454.507 462.287C452.125 463.422 449.519 464.008 446.88 464H65.1202C62.4816 464.008 59.875 463.422 57.4932 462.287C55.1114 461.151 53.0154 459.495 51.3602 457.44C50.0465 455.821 49.0836 453.947 48.5327 451.936C47.9818 449.926 47.855 447.822 48.1602 445.76L170.72 144H222.88C221.943 151.614 218.511 158.703 213.12 164.16C210.723 166.339 209.043 169.194 208.304 172.348C207.564 175.503 207.8 178.807 208.979 181.824C210.158 184.842 212.226 187.43 214.908 189.247C217.59 191.064 220.761 192.024 224 192C228.007 191.955 231.866 190.48 234.88 187.84C246.931 176.218 254.423 160.667 256 144H257.6C258.962 160.56 266.164 176.098 277.92 187.84C280.724 190.309 284.271 191.773 288 192C291.24 192.024 294.41 191.064 297.093 189.247C299.775 187.43 301.842 184.842 303.021 181.824C304.201 178.807 304.436 175.503 303.697 172.348C302.957 169.194 301.278 166.339 298.88 164.16C293.489 158.703 290.057 151.614 289.12 144H341.28L464 445.76C464.284 447.833 464.131 449.943 463.553 451.954C462.974 453.966 461.982 455.834 460.64 457.44Z" fill="#061B1E"/>
<path d="M288 256C292.243 256 296.313 254.314 299.314 251.314C302.314 248.313 304 244.243 304 240C304 235.757 302.314 231.687 299.314 228.686C296.313 225.686 292.243 224 288 224H272V214.4C272 210.157 270.314 206.087 267.314 203.086C264.313 200.086 260.243 198.4 256 198.4C251.757 198.4 247.687 200.086 244.686 203.086C241.686 206.087 240 210.157 240 214.4V224H236.8C229.175 224.042 221.874 227.09 216.482 232.482C211.09 237.874 208.042 245.175 208 252.8V291.2C208.042 298.825 211.09 306.126 216.482 311.518C221.874 316.91 229.175 319.958 236.8 320H272V352H224C219.757 352 215.687 353.686 212.686 356.686C209.686 359.687 208 363.757 208 368C208 372.243 209.686 376.313 212.686 379.314C215.687 382.314 219.757 384 224 384H240V393.6C240 397.844 241.686 401.913 244.686 404.914C247.687 407.914 251.757 409.6 256 409.6C260.243 409.6 264.313 407.914 267.314 404.914C270.314 401.913 272 397.844 272 393.6V384H275.2C282.825 383.958 290.126 380.91 295.518 375.518C300.91 370.126 303.958 362.825 304 355.2V316.8C303.958 309.175 300.91 301.874 295.518 296.482C290.126 291.09 282.825 288.042 275.2 288H240V256H288Z" fill="#061B1E"/>
</svg>
