<svg width="512" height="512" viewBox="0 0 512 512" fill="none" xmlns="http://www.w3.org/2000/svg">
<path d="M256 321.6C273.405 321.6 290.419 316.439 304.89 306.769C319.362 297.1 330.641 283.356 337.301 267.276C343.962 251.196 345.705 233.502 342.309 216.432C338.914 199.362 330.532 183.682 318.225 171.375C305.918 159.068 290.238 150.686 273.168 147.291C256.098 143.895 238.404 145.638 222.324 152.299C206.244 158.959 192.5 170.238 182.831 184.71C173.161 199.181 168 216.195 168 233.6C168.042 256.926 177.327 279.285 193.821 295.779C210.315 312.273 232.674 321.558 256 321.6ZM256 177.6C267.076 177.6 277.903 180.884 287.112 187.038C296.321 193.191 303.499 201.937 307.737 212.17C311.976 222.402 313.085 233.662 310.924 244.525C308.763 255.388 303.43 265.366 295.598 273.198C287.766 281.03 277.788 286.363 266.925 288.524C256.062 290.685 244.802 289.576 234.57 285.337C224.337 281.099 215.591 273.921 209.438 264.712C203.284 255.503 200 244.676 200 233.6C200 218.748 205.9 204.504 216.402 194.002C226.904 183.5 241.148 177.6 256 177.6Z" fill="#061B1E"/>
<path d="M482.08 158.24C477.621 153.734 472.314 150.155 466.465 147.711C460.615 145.267 454.339 144.005 448 144H416V73.12C416 57.9708 409.982 43.4421 399.27 32.7301C388.558 22.018 374.029 16 358.88 16H153.12C137.971 16 123.442 22.018 112.73 32.7301C102.018 43.4421 96 57.9708 96 73.12V144H64C51.3522 144.011 39.2199 149.013 30.24 157.92C25.7335 162.379 22.1549 167.686 19.7108 173.535C17.2667 179.385 16.0055 185.661 16 192V448C16 460.73 21.0571 472.939 30.0589 481.941C39.0606 490.943 51.2696 496 64 496H448C460.73 496 472.939 490.943 481.941 481.941C490.943 472.939 496 460.73 496 448V192C495.989 179.352 490.987 167.22 482.08 158.24ZM48 198.56L169.44 320L48 441.44V198.56ZM208.8 48H304C307.267 68.119 316.73 86.7171 331.071 101.201C345.411 115.685 363.915 125.333 384 128.8V233.44L256 361.44L128 233.44V128.8C148.231 125.485 166.912 115.905 181.408 101.408C195.905 86.9118 205.485 68.2312 208.8 48ZM192 342.56L244.64 395.36C246.127 396.86 247.897 398.05 249.847 398.862C251.797 399.675 253.888 400.093 256 400.093C258.112 400.093 260.203 399.675 262.153 398.862C264.103 398.05 265.873 396.86 267.36 395.36L320 342.56L441.44 464H70.56L192 342.56ZM342.56 320L464 198.56V441.44L342.56 320ZM441.44 176L416 201.44V176H441.44ZM384 73.12V96C372.413 93.0732 361.834 87.0664 353.384 78.616C344.934 70.1657 338.927 59.5866 336 48H359.04C365.674 48.0423 372.023 50.7075 376.699 55.4138C381.376 60.1201 384 66.4854 384 73.12ZM153.12 48H176C173.073 59.5866 167.066 70.1657 158.616 78.616C150.166 87.0664 139.587 93.0732 128 96V73.12C128 66.4578 130.647 60.0684 135.357 55.3575C140.068 50.6466 146.458 48 153.12 48ZM96 201.44L70.56 176H96V201.44Z" fill="#061B1E"/>
</svg>
