<svg width="512" height="512" viewBox="0 0 512 512" fill="none" xmlns="http://www.w3.org/2000/svg">
<path d="M373.28 60.64C349.519 39.4117 320.442 25.0317 289.149 19.0342C257.856 13.0367 225.522 15.6465 195.596 26.5854C165.671 37.5242 139.276 56.3816 119.227 81.146C99.1791 105.91 86.2295 135.653 81.7601 167.2C75.3225 212.407 86.8058 258.341 113.76 295.2C133.161 320.76 143.77 351.912 144 384V448C144 460.73 149.057 472.939 158.059 481.941C167.061 490.943 179.27 496 192 496H320C332.73 496 344.939 490.943 353.941 481.941C362.943 472.939 368 460.73 368 448V384C368.449 351.871 379.219 320.738 398.72 295.2C420.477 265.2 432.132 229.059 432 192C432.018 167.203 426.797 142.683 416.677 120.045C406.558 97.4075 391.769 77.1635 373.28 60.64ZM320 464H192C187.757 464 183.687 462.314 180.686 459.314C177.686 456.313 176 452.243 176 448V400H336V448C336 452.243 334.314 456.313 331.314 459.314C328.313 462.314 324.244 464 320 464ZM372.8 276.16C352.679 302.934 340.233 334.685 336.8 368H176C172.568 334.885 160.239 303.316 140.32 276.64C124.731 255.151 115.386 229.771 113.318 203.303C111.249 176.836 116.538 150.312 128.599 126.662C140.66 103.012 159.024 83.157 181.663 69.2899C204.301 55.4227 230.332 48.0837 256.88 48.0837C283.428 48.0837 309.459 55.4227 332.098 69.2899C354.736 83.157 373.1 103.012 385.161 126.662C397.222 150.312 402.511 176.836 400.442 203.303C398.374 229.771 389.029 255.151 373.44 276.64L372.8 276.16Z" fill="#061B1E"/>
<path d="M296 144C300.243 144 304.313 142.314 307.314 139.314C310.314 136.313 312 132.243 312 128C312 123.757 310.314 119.687 307.314 116.686C304.313 113.686 300.243 112 296 112H272V96C272 91.7565 270.314 87.6869 267.314 84.6863C264.313 81.6857 260.243 80 256 80C251.757 80 247.687 81.6857 244.686 84.6863C241.686 87.6869 240 91.7565 240 96V112H232C223.513 112 215.374 115.371 209.373 121.373C203.371 127.374 200 135.513 200 144V192C200 200.487 203.371 208.626 209.373 214.627C215.374 220.629 223.513 224 232 224H280V272H216C211.757 272 207.687 273.686 204.686 276.686C201.686 279.687 200 283.757 200 288C200 292.243 201.686 296.313 204.686 299.314C207.687 302.314 211.757 304 216 304H240V320C240 324.243 241.686 328.313 244.686 331.314C247.687 334.314 251.757 336 256 336C260.243 336 264.313 334.314 267.314 331.314C270.314 328.313 272 324.243 272 320V304H280C288.487 304 296.626 300.629 302.627 294.627C308.629 288.626 312 280.487 312 272V224C312 215.513 308.629 207.374 302.627 201.373C296.626 195.371 288.487 192 280 192H232V144H296Z" fill="#061B1E"/>
</svg>
