<svg width="512" height="512" viewBox="0 0 512 512" fill="none" xmlns="http://www.w3.org/2000/svg">
<path d="M448 112H401.6L310.24 20.64C307.242 17.66 303.187 15.9873 298.96 15.9873C294.733 15.9873 290.678 17.66 287.68 20.64L255.68 52.64L223.68 20.64C220.682 17.66 216.627 15.9873 212.4 15.9873C208.173 15.9873 204.118 17.66 201.12 20.64L110.4 112H64C51.2696 112 39.0606 117.057 30.0589 126.059C21.0571 135.061 16 147.27 16 160V448C16 460.73 21.0571 472.939 30.0589 481.941C39.0606 490.943 51.2696 496 64 496H448C460.73 496 472.939 490.943 481.941 481.941C490.943 472.939 496 460.73 496 448V160C496 147.27 490.943 135.061 481.941 126.059C472.939 117.057 460.73 112 448 112ZM299.04 54.56L356.32 112H315.68L278.56 75.04L299.04 54.56ZM212.96 54.56L270.4 112H155.68L212.96 54.56ZM448 464H64C59.7565 464 55.6869 462.314 52.6863 459.314C49.6857 456.313 48 452.243 48 448V160C48 155.757 49.6857 151.687 52.6863 148.686C55.6869 145.686 59.7565 144 64 144H448C452.243 144 456.313 145.686 459.314 148.686C462.314 151.687 464 155.757 464 160V240H432C415.026 240 398.748 246.743 386.745 258.745C374.743 270.747 368 287.026 368 304C368 320.974 374.743 337.252 386.745 349.255C398.748 361.257 415.026 368 432 368H464V448C464 452.243 462.314 456.313 459.314 459.314C456.313 462.314 452.243 464 448 464ZM464 272V336H432C423.513 336 415.374 332.629 409.373 326.627C403.371 320.626 400 312.487 400 304C400 295.513 403.371 287.374 409.373 281.373C415.374 275.371 423.513 272 432 272H464Z" fill="#061B1E"/>
<path d="M160 400H96C91.7565 400 87.6869 401.686 84.6863 404.686C81.6857 407.687 80 411.757 80 416C80 420.243 81.6857 424.313 84.6863 427.314C87.6869 430.314 91.7565 432 96 432H160C164.243 432 168.313 430.314 171.314 427.314C174.314 424.313 176 420.243 176 416C176 411.757 174.314 407.687 171.314 404.686C168.313 401.686 164.243 400 160 400Z" fill="#061B1E"/>
</svg>
