<svg width="512" height="512" viewBox="0 0 512 512" fill="none" xmlns="http://www.w3.org/2000/svg">
<path d="M368 272C393.316 272 418.063 264.493 439.113 250.428C460.162 236.363 476.569 216.372 486.257 192.984C495.945 169.595 498.479 143.858 493.541 119.029C488.602 94.1989 476.411 71.3915 458.51 53.4904C440.609 35.5893 417.801 23.3984 392.972 18.4595C368.142 13.5206 342.405 16.0555 319.017 25.7435C295.628 35.4315 275.637 51.8376 261.572 72.8871C247.507 93.9366 240 118.684 240 144C240 177.948 253.486 210.505 277.49 234.51C301.495 258.514 334.052 272 368 272ZM368 48.0001C386.987 48.0001 405.548 53.6304 421.335 64.179C437.122 74.7276 449.426 89.7207 456.692 107.262C463.958 124.804 465.86 144.107 462.155 162.729C458.451 181.351 449.308 198.456 435.882 211.882C422.456 225.308 405.351 234.451 386.729 238.155C368.106 241.86 348.804 239.959 331.262 232.692C313.721 225.426 298.728 213.122 288.179 197.335C277.63 181.548 272 162.987 272 144C272 118.539 282.114 94.1213 300.118 76.1178C318.121 58.1143 342.539 48.0001 368 48.0001Z" fill="#061B1E"/>
<path d="M336 179.2C331.757 179.2 327.687 180.886 324.686 183.886C321.686 186.887 320 190.957 320 195.2C320 199.443 321.686 203.513 324.686 206.514C327.687 209.514 331.757 211.2 336 211.2H354.72C355.689 214.523 357.71 217.443 360.48 219.52C363.25 221.597 366.618 222.72 370.08 222.72C373.542 222.72 376.91 221.597 379.68 219.52C382.45 217.443 384.471 214.523 385.44 211.2H400C404.243 211.2 408.313 209.514 411.314 206.514C414.314 203.513 416 199.443 416 195.2V144C416 139.757 414.314 135.687 411.314 132.686C408.313 129.686 404.243 128 400 128H352V108.8H400C404.243 108.8 408.313 107.114 411.314 104.114C414.314 101.113 416 97.0435 416 92.8C416 88.5566 414.314 84.4869 411.314 81.4863C408.313 78.4857 404.243 76.8 400 76.8H385.44C384.471 73.4766 382.45 70.5572 379.68 68.48C376.91 66.4029 373.542 65.28 370.08 65.28C366.618 65.28 363.25 66.4029 360.48 68.48C357.71 70.5572 355.689 73.4766 354.72 76.8H336C331.757 76.8 327.687 78.4857 324.686 81.4863C321.686 84.4869 320 88.5566 320 92.8V144C320 148.243 321.686 152.313 324.686 155.314C327.687 158.314 331.757 160 336 160H384V179.2H336Z" fill="#061B1E"/>
<path d="M448 359.2L384 372.32C384.157 369.229 384.157 366.131 384 363.04C383.835 356.708 382.418 350.472 379.831 344.69C377.245 338.908 373.539 333.695 368.928 329.352C364.318 325.009 358.893 321.622 352.967 319.385C347.041 317.148 340.731 316.107 334.4 316.32C313.609 316.955 292.972 312.564 274.24 303.52L244 290.24C235.881 286.732 226.844 285.946 218.24 288C217.129 288.148 216.049 288.472 215.04 288.96L165.76 311.2C163.991 305.93 161.516 300.924 158.4 296.32C151.255 285.982 140.34 278.859 128 276.48L34.8803 262.56C32.5651 262.136 30.1849 262.229 27.9095 262.83C25.634 263.432 23.5194 264.528 21.7162 266.041C19.9131 267.554 18.466 269.446 17.478 271.582C16.4899 273.718 15.9854 276.046 16.0003 278.4V470.4C16.0003 474.643 17.686 478.713 20.6866 481.714C23.6872 484.714 27.7569 486.4 32.0003 486.4H102.4C113.795 485.902 124.664 481.468 133.154 473.853C141.645 466.238 147.231 455.913 148.96 444.64L264.48 489.12C275.927 493.704 288.15 496.04 300.48 496C313.2 495.994 325.801 493.55 337.6 488.8L470.08 435.04C479.795 431.168 487.652 423.713 492.029 414.215C496.406 404.717 496.968 393.901 493.6 384C490.302 375.038 483.857 367.581 475.468 363.018C467.078 358.455 457.316 357.098 448 359.2ZM102.4 454.4H48.0003V296.96L122.72 308.16C126.688 309.028 130.178 311.374 132.48 314.72C134.538 317.82 135.964 321.295 136.678 324.946C137.391 328.597 137.379 332.354 136.64 336L117.76 437.44C116 448 109.44 454.4 102.4 454.4ZM458.08 405.28L325.6 459.04C309.672 465.365 291.929 465.365 276 459.04L154.88 412.8L167.36 345.44L226.24 318.88C227.778 318.742 229.325 319.018 230.72 319.68L261.12 332.96C284.031 344.074 309.263 349.559 334.72 348.96C336.901 348.829 339.085 349.146 341.138 349.891C343.192 350.636 345.071 351.794 346.66 353.293C348.249 354.792 349.514 356.6 350.377 358.607C351.241 360.613 351.684 362.776 351.68 364.96C351.805 368.736 351.373 372.51 350.4 376.16L260.32 350.88C258.251 350.129 256.05 349.812 253.853 349.95C251.656 350.089 249.512 350.679 247.553 351.684C245.595 352.689 243.865 354.087 242.472 355.791C241.078 357.495 240.052 359.468 239.456 361.587C238.86 363.706 238.707 365.925 239.008 368.105C239.309 370.286 240.056 372.381 241.204 374.259C242.351 376.138 243.874 377.759 245.677 379.022C247.479 380.285 249.523 381.163 251.68 381.6L353.28 410.08H354.4H356.16H357.6H359.2H360.8L454.56 390.88C456.446 390.424 458.435 390.698 460.127 391.648C461.818 392.597 463.088 394.152 463.68 396C463.889 397.946 463.454 399.907 462.443 401.583C461.431 403.259 459.899 404.557 458.08 405.28Z" fill="#061B1E"/>
</svg>
