<svg width="512" height="512" viewBox="0 0 512 512" fill="none" xmlns="http://www.w3.org/2000/svg">
<path d="M256 16C208.533 16 162.131 30.0758 122.663 56.4473C83.1955 82.8188 52.4341 120.302 34.269 164.156C16.104 208.01 11.3512 256.266 20.6116 302.822C29.8721 349.377 52.7299 392.141 86.2945 425.706C119.859 459.27 162.623 482.128 209.178 491.388C255.734 500.649 303.99 495.896 347.844 477.731C391.698 459.566 429.181 428.805 455.553 389.337C481.924 349.869 496 303.468 496 256C496 192.348 470.714 131.303 425.706 86.2944C380.697 41.2856 319.652 16 256 16ZM256 464C214.862 464 174.647 451.801 140.441 428.946C106.236 406.09 79.5762 373.605 63.8332 335.598C48.0901 297.591 43.971 255.769 51.9968 215.421C60.0225 175.073 79.8326 138.011 108.922 108.922C138.011 79.8325 175.073 60.0224 215.421 51.9967C255.769 43.9709 297.591 48.09 335.598 63.8331C373.605 79.5761 406.09 106.236 428.946 140.441C451.801 174.647 464 214.861 464 256C464 311.165 442.086 364.071 403.078 403.078C364.071 442.086 311.165 464 256 464Z" fill="#061B1E"/>
<path d="M256 80C221.191 80 187.163 90.3222 158.22 109.661C129.277 129 106.718 156.488 93.3973 188.648C80.0763 220.808 76.5909 256.195 83.3819 290.336C90.1729 324.477 106.935 355.837 131.549 380.451C156.163 405.065 187.524 421.827 221.664 428.618C255.805 435.409 291.193 431.924 323.352 418.603C355.512 405.282 383 382.723 402.339 353.78C421.678 324.837 432 290.81 432 256C432 209.322 413.457 164.556 380.451 131.549C347.444 98.5428 302.678 80 256 80ZM256 400C227.52 400 199.679 391.555 175.998 375.732C152.317 359.909 133.86 337.419 122.961 311.106C112.062 284.794 109.211 255.84 114.767 227.907C120.323 199.974 134.038 174.315 154.177 154.177C174.315 134.038 199.974 120.323 227.907 114.767C255.84 109.211 284.794 112.062 311.106 122.961C337.419 133.86 359.909 152.317 375.732 175.998C391.555 199.679 400 227.519 400 256C400 294.191 384.829 330.818 357.823 357.823C330.818 384.829 294.191 400 256 400Z" fill="#061B1E"/>
<path d="M296 192C300.243 192 304.313 190.314 307.314 187.314C310.314 184.313 312 180.243 312 176C312 171.757 310.314 167.687 307.314 164.686C304.313 161.686 300.243 160 296 160H272V144C272 139.757 270.314 135.687 267.314 132.686C264.313 129.686 260.243 128 256 128C251.757 128 247.687 129.686 244.686 132.686C241.686 135.687 240 139.757 240 144V160H232C223.513 160 215.374 163.371 209.373 169.373C203.371 175.374 200 183.513 200 192V240C200 248.487 203.371 256.626 209.373 262.627C215.374 268.629 223.513 272 232 272H280V320H216C211.757 320 207.687 321.686 204.686 324.686C201.686 327.687 200 331.757 200 336C200 340.243 201.686 344.313 204.686 347.314C207.687 350.314 211.757 352 216 352H240V368C240 372.243 241.686 376.313 244.686 379.314C247.687 382.314 251.757 384 256 384C260.243 384 264.313 382.314 267.314 379.314C270.314 376.313 272 372.243 272 368V352H280C288.487 352 296.626 348.629 302.627 342.627C308.629 336.626 312 328.487 312 320V272C312 263.513 308.629 255.374 302.627 249.373C296.626 243.371 288.487 240 280 240H232V192H296Z" fill="#061B1E"/>
</svg>
