<svg width="512" height="512" viewBox="0 0 512 512" fill="none" xmlns="http://www.w3.org/2000/svg">
<path d="M480 80H32C27.7565 80 23.6869 81.6857 20.6863 84.6863C17.6857 87.6869 16 91.7565 16 96V416C16 420.243 17.6857 424.313 20.6863 427.314C23.6869 430.314 27.7565 432 32 432H480C484.243 432 488.313 430.314 491.314 427.314C494.314 424.313 496 420.243 496 416V96C496 91.7565 494.314 87.6869 491.314 84.6863C488.313 81.6857 484.243 80 480 80ZM176 112V400H128V112H176ZM48 112H96V400H48V112ZM464 400H208V112H464V400Z" fill="#061B1E"/>
<path d="M311.36 259.2C307.117 259.2 303.047 260.886 300.047 263.886C297.046 266.887 295.36 270.957 295.36 275.2C295.36 279.443 297.046 283.513 300.047 286.514C303.047 289.514 307.117 291.2 311.36 291.2H320V294.4C320 298.643 321.686 302.713 324.687 305.714C327.687 308.714 331.757 310.4 336 310.4C340.244 310.4 344.314 308.714 347.314 305.714C350.315 302.713 352 298.643 352 294.4V291.04C358.481 290.634 364.566 287.781 369.022 283.057C373.478 278.334 375.972 272.094 376 265.6V236.8C376 230.01 373.303 223.499 368.502 218.698C363.701 213.897 357.19 211.2 350.4 211.2H328V195.2H360C364.244 195.2 368.314 193.514 371.314 190.514C374.315 187.513 376 183.443 376 179.2C376 174.957 374.315 170.887 371.314 167.886C368.314 164.886 364.244 163.2 360 163.2H352V160C352 155.757 350.315 151.687 347.314 148.686C344.314 145.686 340.244 144 336 144C331.757 144 327.687 145.686 324.687 148.686C321.686 151.687 320 155.757 320 160V163.36C313.506 163.728 307.399 166.57 302.935 171.302C298.472 176.033 295.99 182.295 296 188.8V217.6C296 224.39 298.698 230.901 303.498 235.702C308.299 240.503 314.811 243.2 321.6 243.2H344V259.2H311.36Z" fill="#061B1E"/>
<path d="M256 368H416C420.243 368 424.313 366.314 427.314 363.314C430.314 360.313 432 356.243 432 352C432 347.757 430.314 343.687 427.314 340.686C424.313 337.686 420.243 336 416 336H256C251.757 336 247.687 337.686 244.686 340.686C241.686 343.687 240 347.757 240 352C240 356.243 241.686 360.313 244.686 363.314C247.687 366.314 251.757 368 256 368Z" fill="#061B1E"/>
</svg>
