<svg width="512" height="512" viewBox="0 0 512 512" fill="none" xmlns="http://www.w3.org/2000/svg">
<path d="M448 16H64C51.2696 16 39.0606 21.0571 30.0589 30.0589C21.0571 39.0606 16 51.2696 16 64V160C16 172.73 21.0571 184.939 30.0589 193.941C39.0606 202.943 51.2696 208 64 208H80V434.24C80 450.62 86.5068 466.329 98.0891 477.911C109.671 489.493 125.38 496 141.76 496H370.24C386.62 496 402.329 489.493 413.911 477.911C425.493 466.329 432 450.62 432 434.24V208H448C460.73 208 472.939 202.943 481.941 193.941C490.943 184.939 496 172.73 496 160V64C496 51.2696 490.943 39.0606 481.941 30.0589C472.939 21.0571 460.73 16 448 16ZM400 373.92C377.345 377.375 356.387 387.978 340.183 404.183C323.978 420.387 313.375 441.345 309.92 464H202.08C198.625 441.345 188.022 420.387 171.817 404.183C155.613 387.978 134.655 377.375 112 373.92V112H400V373.92ZM112 434.24V406.4C126.111 409.473 139.042 416.535 149.253 426.747C159.465 436.959 166.527 449.889 169.6 464H141.76C133.867 464 126.298 460.865 120.716 455.284C115.135 449.702 112 442.133 112 434.24ZM370.24 464H342.4C345.473 449.889 352.535 436.959 362.747 426.747C372.959 416.535 385.889 409.473 400 406.4V434.24C400 442.133 396.865 449.702 391.284 455.284C385.702 460.865 378.133 464 370.24 464ZM464 160C464 164.243 462.314 168.313 459.314 171.314C456.313 174.314 452.243 176 448 176H432V96C432 91.7565 430.314 87.6869 427.314 84.6863C424.313 81.6857 420.243 80 416 80H96C91.7565 80 87.6869 81.6857 84.6863 84.6863C81.6857 87.6869 80 91.7565 80 96V176H64C59.7565 176 55.6869 174.314 52.6863 171.314C49.6857 168.313 48 164.243 48 160V64C48 59.7565 49.6857 55.6869 52.6863 52.6863C55.6869 49.6857 59.7565 48 64 48H448C452.243 48 456.313 49.6857 459.314 52.6863C462.314 55.6869 464 59.7565 464 64V160Z" fill="#061B1E"/>
<path d="M256 352C274.987 352 293.548 346.37 309.335 335.821C325.122 325.272 337.426 310.279 344.692 292.738C351.958 275.196 353.86 255.894 350.155 237.271C346.451 218.649 337.308 201.544 323.882 188.118C310.456 174.692 293.351 165.549 274.729 161.845C256.106 158.14 236.804 160.042 219.262 167.308C201.721 174.574 186.728 186.878 176.179 202.665C165.63 218.452 160 237.013 160 256C160 281.461 170.114 305.879 188.118 323.882C206.121 341.886 230.539 352 256 352ZM256 192C268.658 192 281.032 195.754 291.556 202.786C302.081 209.818 310.284 219.814 315.128 231.508C319.972 243.203 321.24 256.071 318.77 268.486C316.301 280.901 310.205 292.304 301.255 301.255C292.304 310.205 280.901 316.301 268.486 318.77C256.071 321.24 243.203 319.972 231.508 315.128C219.814 310.284 209.818 302.081 202.786 291.557C195.754 281.032 192 268.658 192 256C192 239.026 198.743 222.748 210.745 210.745C222.747 198.743 239.026 192 256 192Z" fill="#061B1E"/>
</svg>
